<?xml version="1.0" encoding="utf-8"?>
<!-- Generator: Adobe Illustrator 21.1.0, SVG Export Plug-In . SVG Version: 6.00 Build 0)  -->
<svg version="1.1" id="Layer_1" xmlns="http://www.w3.org/2000/svg" xmlns:xlink="http://www.w3.org/1999/xlink" x="0px" y="0px"
	 viewBox="0 0 434 141" style="enable-background:new 0 0 434 141;" xml:space="preserve">
<style type="text/css">
	.st0{fill:url(#SVGID_1_);}
	.st1{fill:#EA4326;}
	.st2{clip-path:url(#SVGID_3_);}
	.st3{clip-path:url(#SVGID_5_);}
	.st4{clip-path:url(#SVGID_7_);}
	.st5{clip-path:url(#SVGID_9_);}
	.st6{fill:url(#SVGID_10_);}
	.st7{clip-path:url(#SVGID_12_);}
	.st8{fill:url(#SVGID_13_);}
	.st9{fill:url(#SVGID_14_);}
	.st10{fill:url(#SVGID_15_);}
	.st11{fill:url(#SVGID_16_);}
	.st12{fill:url(#SVGID_17_);}
	.st13{fill:url(#SVGID_18_);}
	.st14{fill:url(#SVGID_19_);}
	.st15{fill:url(#SVGID_20_);}
	.st16{fill:url(#SVGID_21_);}
	.st17{fill:url(#SVGID_22_);}
	.st18{fill:url(#SVGID_23_);}
	.st19{fill:url(#SVGID_24_);}
	.st20{fill:url(#SVGID_25_);}
	.st21{fill:url(#SVGID_26_);}
	.st22{fill:url(#SVGID_27_);}
	.st23{fill:url(#SVGID_28_);}
	.st24{fill:url(#SVGID_29_);}
	.st25{fill:url(#SVGID_30_);}
	.st26{fill:url(#SVGID_31_);}
	.st27{fill:url(#SVGID_32_);}
	.st28{fill:url(#SVGID_33_);}
	.st29{fill:url(#SVGID_34_);}
	.st30{fill:url(#SVGID_35_);}
	.st31{fill:url(#SVGID_36_);}
	.st32{fill:url(#SVGID_37_);}
	.st33{fill:url(#SVGID_38_);}
	.st34{fill:url(#SVGID_39_);}
	.st35{fill:url(#SVGID_40_);}
</style>
<title>city</title>
<g id="Building_2_London">
	
		<linearGradient id="SVGID_1_" gradientUnits="userSpaceOnUse" x1="-2.33" y1="3" x2="438.08" y2="3" gradientTransform="matrix(1 0 0 -1 0 142)">
		<stop  offset="0" style="stop-color:#EA4D89"/>
		<stop  offset="1" style="stop-color:#FF1F1F"/>
	</linearGradient>
	<path class="st0" d="M325,141h-60c-1.1,0-2-0.9-2-2s0.9-2,2-2h60c1.1,0,2,0.9,2,2S326.1,141,325,141z"/>
	<path class="st1" d="M307.5,57h-4c-0.3,0-0.5,0.2-0.5,0.5V58h-2V40c0-0.6-0.4-1-1-1s-1,0.4-1,1v4h-3v-7c0.1-0.6-0.3-1-0.9-1.1
		c-0.6-0.1-1,0.3-1.1,0.9l-21,102c-0.1,0.5,0.2,1.1,0.8,1.2c0,0,0,0,0,0h0.2c0.5,0,0.9-0.3,1-0.8l0.1-0.7c0.1,0,0.3-0.1,0.3-0.2
		L294,97.4V108l-13.5,30.8c-0.1,0.3,0,0.5,0.3,0.7s0.5,0,0.7-0.3l12.5-28.7v12l-6.5,16.3c-0.1,0.3,0,0.5,0.3,0.6c0,0,0,0,0,0
		c0.1,0,0.1,0,0.2,0c0.2,0,0.4-0.1,0.5-0.3l5.5-13.9V139c0,0.6,0.4,1,1,1s1-0.4,1-1v-12h3v12c0,0.6,0.4,1,1,1s1-0.4,1-1v-6h2v6
		c0,0.3,0.2,0.5,0.5,0.5s0.5-0.2,0.5-0.5v-6h3v6c0,0.3,0.2,0.5,0.5,0.5s0.5-0.2,0.5-0.5V57.5C308,57.2,307.8,57,307.5,57z
		 M288.8,72.3l5.2-11.8V69l-8.5,19.2L288.8,72.3z M307,67h-3v-4h3V67z M307,72h-3v-4h3V72z M307,77h-3v-4h3V77z M307,82h-3v-4h3V82z
		 M307,87h-3v-4h3V87z M307,92h-3v-4h3V92z M307,97h-3v-4h3V97z M307,102h-3v-4h3V102z M307,107h-3v-4h3V107z M307,112h-3v-4h3V112z
		 M307,117h-3v-4h3V117z M307,122h-3v-4h3V122z M301,108h2v4h-2V108z M301,107v-4h2v4H301z M301,102v-4h2v4H301z M301,97v-4h2v4H301
		z M301,92v-4h2v4H301z M301,87v-4h2v4H301z M301,82v-4h2v4H301z M301,77v-4h2v4H301z M301,72v-4h2v4H301z M299,82h-3V72h3V82z
		 M296,83h3v10h-3V83z M301,113h2v4h-2V113z M301,118h2v4h-2V118z M303,67h-2v-4h2V67z M299,71h-3V61h3V71z M284.5,92.8l9.5-21.3V82
		l-13.4,30L284.5,92.8z M296,94h3v10h-3V94z M296,105h3v10h-3V105z M301,123h2v4h-2V123z M304,123h3v4h-3V123z M307,58v4h-3v-4H307z
		 M303,59v3h-2v-3H303z M299,45v15h-3V45H299z M294,58l-4.3,9.7l4.3-20.8V58z M275.9,134.9l3.8-18.3L294,84.5V95L275.9,134.9z
		 M296,126v-10h3v10H296z M301,132v-4h2v4H301z M304,132v-4h3v4H304z"/>
</g>
<g id="Building_5_London">
	<path class="st1" d="M110,141H2c-1.1,0-2-0.9-2-2s0.9-2,2-2h108c1.1,0,2,0.9,2,2S111.1,141,110,141z"/>
	<path class="st1" d="M99,87v-2c0,0,0-0.1,0-0.1c0-0.1,0-0.1,0-0.2c0-0.1,0-0.1-0.1-0.2c0,0,0-0.1,0-0.1c-0.8-1.1-1.4-2.2-1.9-3.4
		v-5l0,0c0-0.1,0-0.1,0-0.2c0-0.1,0-0.1-0.1-0.2l0,0C95.8,73.4,93,67.3,93,65v-1c0-0.6-0.4-1-1-1s-1,0.4-1,1v1
		c0,2.3-2.8,8.4-3.9,10.6l0,0c0,0.1,0,0.1-0.1,0.2c0,0.1,0,0.1,0,0.2l0,0v5c-0.4,1.2-1.1,2.4-1.8,3.4c0,0,0,0.1,0,0.1
		c0,0.1-0.1,0.1-0.1,0.2c0,0.1,0,0.1,0,0.2L85,85v2c-0.6,0-1,0.4-1,1v14c0,0.6,0.4,1,1,1v6c-0.3,0-0.5,0.2-0.5,0.5s0.2,0.5,0.5,0.5
		v3h-3v-7c0-0.6-0.4-1-1-1v-2c0-0.3-0.2-0.5-0.5-0.5S80,102.7,80,103v5.6l-1-1.5c0,0,0-0.1,0-0.1v-2c0-0.3-0.2-0.5-0.5-0.5
		S78,104.7,78,105v1h-2v-1c0-0.3-0.2-0.5-0.5-0.5S75,104.7,75,105v2c0,0,0,0.1,0,0.1l-1,1.5V103c0-0.3-0.2-0.5-0.5-0.5
		S73,102.7,73,103v2c-0.6,0-1,0.4-1,1v7h-3v-1c0-0.3-0.2-0.5-0.5-0.5S68,111.7,68,112v1h-3v-1c0-0.3-0.2-0.5-0.5-0.5
		S64,111.7,64,112v1h-3v-7c0-0.6-0.4-1-1-1v-2c0-0.3-0.2-0.5-0.5-0.5S59,102.7,59,103v5.6l-1-1.5c0,0,0-0.1,0-0.1v-2
		c0-0.3-0.2-0.5-0.5-0.5S57,104.7,57,105v1h-2v-1c0-0.3-0.2-0.5-0.5-0.5S54,104.7,54,105v2c0,0,0,0.1,0,0.1l-1,1.5V103
		c0-0.3-0.2-0.5-0.5-0.5S52,102.7,52,103v2c-0.6,0-1,0.4-1,1v7h-3v-1c0-0.3-0.2-0.5-0.5-0.5S47,111.7,47,112v1h-3v-1
		c0-0.3-0.2-0.5-0.5-0.5S43,111.7,43,112v1h-3v-1c0-0.3-0.2-0.5-0.5-0.5S39,111.7,39,112v1h-3v-1c0-0.3-0.2-0.5-0.5-0.5
		S35,111.7,35,112v1h-3v-1c0-0.3-0.2-0.5-0.5-0.5S31,111.7,31,112v1h-3v-10c0-0.6-0.4-1-1-1v-2c0-0.3-0.2-0.5-0.5-0.5
		S26,99.7,26,100v5.6l-1-1.5c0,0,0-0.1,0-0.1v-2c0-0.3-0.2-0.5-0.5-0.5S24,101.7,24,102v1h-2v-1c0-0.3-0.2-0.5-0.5-0.5
		S21,101.7,21,102v2c0,0,0,0.1,0,0.1l-1,1.5V100c0-0.3-0.2-0.5-0.5-0.5S19,99.7,19,100v2c-0.6,0-1,0.4-1,1v11
		c-0.3,0-0.5,0.2-0.5,0.5s0.2,0.5,0.5,0.5v3c-0.3,0-0.5,0.2-0.5,0.5s0.2,0.5,0.5,0.5v6c-0.3,0-0.5,0.2-0.5,0.5s0.2,0.5,0.5,0.5v7
		c-0.3,0-0.5,0.2-0.5,0.5s0.2,0.5,0.5,0.5v5c0,0.6,0.4,1,1,1s1-0.4,1-1v-5h6v5c0,0.6,0.4,1,1,1s1-0.4,1-1v-4h23v4c0,0.6,0.4,1,1,1
		s1-0.4,1-1v-5h6v5c0,0.6,0.4,1,1,1s1-0.4,1-1v-4h11v4c0,0.6,0.4,1,1,1s1-0.4,1-1v-5h6v5c0,0.6,0.4,1,1,1s1-0.4,1-1v-4h3v4
		c0,0.6,0.4,1,1,1h12c0.6,0,1-0.4,1-1v-13c0.3,0,0.5-0.2,0.5-0.5S99.3,125,99,125v-7c0.3,0,0.5-0.2,0.5-0.5S99.3,117,99,117v-7
		c0.3,0,0.5-0.2,0.5-0.5S99.3,109,99,109v-6c0.6,0,1-0.4,1-1V88C100,87.4,99.6,87,99,87z M86,101V89h12v12H86z M95,80h-1v-1
		c0-0.3-0.2-0.5-0.5-0.5S93,78.7,93,79v1h-2v-1c0-0.3-0.2-0.5-0.5-0.5S90,78.7,90,79v1h-1v-3h6V80z M88.8,82h6.4
		c0.3,0.7,0.6,1.4,1,2h-8.4C88.2,83.4,88.5,82.7,88.8,82z M92,69.3c0.7,2.1,1.7,4.3,2.4,5.7h-4.8C90.3,73.6,91.3,71.4,92,69.3z
		 M87,86h10v1h-1c0-0.6-0.4-1-1-1s-1,0.4-1,1h-1c0-0.6-0.4-1-1-1s-1,0.4-1,1h-1c0-0.6-0.4-1-1-1s-1,0.4-1,1h-1V86z M85,115v2
		c-0.3,0-0.5,0.2-0.5,0.5s0.2,0.5,0.5,0.5h-3c0.3,0,0.5-0.2,0.5-0.5S82.3,117,82,117v-2H85z M77,121c-0.6,0-1,0.4-1,1v3h-2v-7h6v7
		h-2v-3C78,121.4,77.6,121,77,121z M74,111h6v6h-6V111z M74.4,109.8l1.8-2.8h1.5l1.8,2.8c0.1,0.1,0.3,0.2,0.4,0.2h-6
		C74.2,110,74.3,109.9,74.4,109.8z M72,115v2c-0.3,0-0.5,0.2-0.5,0.5s0.2,0.5,0.5,0.5h-3v-2c0-0.3-0.2-0.5-0.5-0.5S68,115.7,68,116
		v2h-3v-2c0-0.3-0.2-0.5-0.5-0.5S64,115.7,64,116v2h-3c0.3,0,0.5-0.2,0.5-0.5S61.3,117,61,117v-2H72z M56,121c-0.6,0-1,0.4-1,1v3h-2
		v-7h6v7h-2v-3C57,121.4,56.6,121,56,121z M53,111h6v6h-6V111z M53.4,109.8l1.9-2.8h1.5l1.8,2.8c0.1,0.1,0.3,0.2,0.4,0.2h-6
		C53.2,110,53.3,109.9,53.4,109.8z M51,117c-0.3,0-0.5,0.2-0.5,0.5s0.2,0.5,0.5,0.5h-3v-2c0-0.3-0.2-0.5-0.5-0.5S47,115.7,47,116v2
		h-3v-2c0-0.3-0.2-0.5-0.5-0.5S43,115.7,43,116v2h-3v-2c0-0.3-0.2-0.5-0.5-0.5S39,115.7,39,116v2h-3v-2c0-0.3-0.2-0.5-0.5-0.5
		S35,115.7,35,116v2h-3v-2c0-0.3-0.2-0.5-0.5-0.5S31,115.7,31,116v2h-3v-3h23V117z M20.4,106.8l1.9-2.8h1.5l1.9,2.8
		c0.1,0.1,0.3,0.2,0.4,0.2h-6C20.2,107,20.3,106.9,20.4,106.8z M20,108h6v6h-6V108z M20,115h6v3h-6V115z M20,119h6v6h-2v-3
		c0-0.6-0.4-1-1-1s-1,0.4-1,1v3h-2V119z M24,133v-3c0-0.6-0.4-1-1-1s-1,0.4-1,1v3h-2v-7h6v7H24z M28,134c0.3,0,0.5-0.2,0.5-0.5
		S28.3,133,28,133v-7c0.3,0,0.5-0.2,0.5-0.5S28.3,125,28,125v-6h3v15H28z M32,134v-15h3v15H32z M36,134v-15h3v15H36z M40,134v-15h3
		v15H40z M44,134v-15h3v15H44z M48,134v-15h3v6c-0.3,0-0.5,0.2-0.5,0.5s0.2,0.5,0.5,0.5v7c-0.3,0-0.5,0.2-0.5,0.5s0.2,0.5,0.5,0.5
		H48z M57,133v-3c0-0.6-0.4-1-1-1s-1,0.4-1,1v3h-2v-7h6v7H57z M61,134c0.3,0,0.5-0.2,0.5-0.5S61.3,133,61,133v-7
		c0.3,0,0.5-0.2,0.5-0.5S61.3,125,61,125v-6h3v15H61z M65,134v-15h3v15H65z M69,134v-15h3v6c-0.3,0-0.5,0.2-0.5,0.5s0.2,0.5,0.5,0.5
		v7c-0.3,0-0.5,0.2-0.5,0.5s0.2,0.5,0.5,0.5H69z M78,133v-3c0-0.6-0.4-1-1-1s-1,0.4-1,1v3h-2v-7h6v7H78z M82,134
		c0.3,0,0.5-0.2,0.5-0.5S82.3,133,82,133v-7c0.3,0,0.5-0.2,0.5-0.5S82.3,125,82,125v-6h3v6c-0.3,0-0.5,0.2-0.5,0.5s0.2,0.5,0.5,0.5
		v8H82z M97,138h-1v-10c0-0.3-0.2-0.5-0.5-0.5S95,127.7,95,128v10h-1v-10c0-0.3-0.2-0.5-0.5-0.5S93,127.7,93,128v10h-2v-10
		c0-0.3-0.2-0.5-0.5-0.5S90,127.7,90,128v10h-1v-10c0-0.3-0.2-0.5-0.5-0.5S88,127.7,88,128v10h-1v-12h10V138z M97,125H87v-7h10V125z
		 M97,117H87v-7h10V117z M97,109H87v-6h1c0,0.6,0.4,1,1,1s1-0.4,1-1h1c0,0.6,0.4,1,1,1s1-0.4,1-1h1c0,0.6,0.4,1,1,1s1-0.4,1-1h1V109
		z"/>
	<path class="st1" d="M96.5,90h-9c-0.3,0-0.5,0.2-0.5,0.5v9c0,0.3,0.2,0.5,0.5,0.5h9c0.3,0,0.5-0.2,0.5-0.5v-9
		C97,90.2,96.8,90,96.5,90z M96,93c-0.4-0.9-1.1-1.6-2-2h2V93z M95.5,95c0,1.9-1.6,3.5-3.5,3.5s-3.5-1.6-3.5-3.5s1.6-3.5,3.5-3.5
		l0,0C93.9,91.5,95.5,93.1,95.5,95z M90,91c-0.9,0.4-1.6,1.1-2,2v-2H90z M88,97c0.4,0.9,1.1,1.6,2,2h-2V97z M94,99
		c0.9-0.4,1.6-1.1,2-2v2H94z"/>
	<path class="st1" d="M94.2,95.6l-2-1l0,0h-0.1H92h-0.1h-0.1h-0.1l-0.1,0.1l0,0l-1,1c-0.2,0.2-0.2,0.5,0,0.7s0.5,0.2,0.7,0l0,0
		l0.8-0.8l1.7,0.8c0.1,0,0.1,0.1,0.2,0.1c0.3,0,0.5-0.2,0.5-0.5C94.5,95.8,94.4,95.6,94.2,95.6L94.2,95.6z"/>
	<path class="st1" d="M88.5,105.5c-0.3,0-0.5,0.2-0.5,0.5v2c0,0.3,0.2,0.5,0.5,0.5s0.5-0.2,0.5-0.5v-2
		C89,105.7,88.8,105.5,88.5,105.5z"/>
	<path class="st1" d="M90.5,105.5c-0.3,0-0.5,0.2-0.5,0.5v2c0,0.3,0.2,0.5,0.5,0.5s0.5-0.2,0.5-0.5v-2
		C91,105.7,90.8,105.5,90.5,105.5z"/>
	<path class="st1" d="M95.5,105.5c-0.3,0-0.5,0.2-0.5,0.5v2c0,0.3,0.2,0.5,0.5,0.5s0.5-0.2,0.5-0.5v-2
		C96,105.7,95.8,105.5,95.5,105.5z"/>
	<path class="st1" d="M93.5,105.5c-0.3,0-0.5,0.2-0.5,0.5v2c0,0.3,0.2,0.5,0.5,0.5s0.5-0.2,0.5-0.5v-2
		C94,105.7,93.8,105.5,93.5,105.5z"/>
	<path class="st1" d="M88.5,116.5c0.3,0,0.5-0.2,0.5-0.5v-5c0-0.3-0.2-0.5-0.5-0.5S88,110.7,88,111v5
		C88,116.3,88.2,116.5,88.5,116.5z"/>
	<path class="st1" d="M90.5,116.5c0.3,0,0.5-0.2,0.5-0.5v-5c0-0.3-0.2-0.5-0.5-0.5S90,110.7,90,111v5
		C90,116.3,90.2,116.5,90.5,116.5z"/>
	<path class="st1" d="M95.5,116.5c0.3,0,0.5-0.2,0.5-0.5v-5c0-0.3-0.2-0.5-0.5-0.5S95,110.7,95,111v5
		C95,116.3,95.2,116.5,95.5,116.5z"/>
	<path class="st1" d="M93.5,116.5c0.3,0,0.5-0.2,0.5-0.5v-5c0-0.3-0.2-0.5-0.5-0.5S93,110.7,93,111v5
		C93,116.3,93.2,116.5,93.5,116.5z"/>
	<path class="st1" d="M88.5,124.5c0.3,0,0.5-0.2,0.5-0.5v-5c0-0.3-0.2-0.5-0.5-0.5S88,118.7,88,119v5
		C88,124.3,88.2,124.5,88.5,124.5z"/>
	<path class="st1" d="M90.5,124.5c0.3,0,0.5-0.2,0.5-0.5v-5c0-0.3-0.2-0.5-0.5-0.5S90,118.7,90,119v5
		C90,124.3,90.2,124.5,90.5,124.5z"/>
	<path class="st1" d="M95.5,124.5c0.3,0,0.5-0.2,0.5-0.5v-5c0-0.3-0.2-0.5-0.5-0.5S95,118.7,95,119v5
		C95,124.3,95.2,124.5,95.5,124.5z"/>
	<path class="st1" d="M93.5,124.5c0.3,0,0.5-0.2,0.5-0.5v-5c0-0.3-0.2-0.5-0.5-0.5S93,118.7,93,119v5
		C93,124.3,93.2,124.5,93.5,124.5z"/>
	<path class="st1" d="M83.5,120.5c-0.3,0-0.5,0.2-0.5,0.5v3c0,0.3,0.2,0.5,0.5,0.5s0.5-0.2,0.5-0.5v-3
		C84,120.7,83.8,120.5,83.5,120.5z"/>
	<path class="st1" d="M83.5,128.5c-0.3,0-0.5,0.2-0.5,0.5v3c0,0.3,0.2,0.5,0.5,0.5s0.5-0.2,0.5-0.5v-3
		C84,128.7,83.8,128.5,83.5,128.5z"/>
	<path class="st1" d="M70.5,120.5c-0.3,0-0.5,0.2-0.5,0.5v3c0,0.3,0.2,0.5,0.5,0.5s0.5-0.2,0.5-0.5v-3
		C71,120.7,70.8,120.5,70.5,120.5z"/>
	<path class="st1" d="M70.5,128.5c-0.3,0-0.5,0.2-0.5,0.5v3c0,0.3,0.2,0.5,0.5,0.5s0.5-0.2,0.5-0.5v-3
		C71,128.7,70.8,128.5,70.5,128.5z"/>
	<path class="st1" d="M66.5,128.5c-0.3,0-0.5,0.2-0.5,0.5v3c0,0.3,0.2,0.5,0.5,0.5s0.5-0.2,0.5-0.5v-3
		C67,128.7,66.8,128.5,66.5,128.5z"/>
	<path class="st1" d="M62.5,128.5c-0.3,0-0.5,0.2-0.5,0.5v3c0,0.3,0.2,0.5,0.5,0.5s0.5-0.2,0.5-0.5v-3
		C63,128.7,62.8,128.5,62.5,128.5z"/>
	<path class="st1" d="M49.5,128.5c-0.3,0-0.5,0.2-0.5,0.5v3c0,0.3,0.2,0.5,0.5,0.5s0.5-0.2,0.5-0.5v-3
		C50,128.7,49.8,128.5,49.5,128.5z"/>
	<path class="st1" d="M66.5,120.5c-0.3,0-0.5,0.2-0.5,0.5v3c0,0.3,0.2,0.5,0.5,0.5s0.5-0.2,0.5-0.5v-3
		C67,120.7,66.8,120.5,66.5,120.5z"/>
	<path class="st1" d="M62.5,120.5c-0.3,0-0.5,0.2-0.5,0.5v3c0,0.3,0.2,0.5,0.5,0.5s0.5-0.2,0.5-0.5v-3
		C63,120.7,62.8,120.5,62.5,120.5z"/>
	<path class="st1" d="M49.5,120.5c-0.3,0-0.5,0.2-0.5,0.5v3c0,0.3,0.2,0.5,0.5,0.5s0.5-0.2,0.5-0.5v-3
		C50,120.7,49.8,120.5,49.5,120.5z"/>
	<path class="st1" d="M45.5,128.5c-0.3,0-0.5,0.2-0.5,0.5v3c0,0.3,0.2,0.5,0.5,0.5s0.5-0.2,0.5-0.5v-3
		C46,128.7,45.8,128.5,45.5,128.5z"/>
	<path class="st1" d="M45.5,120.5c-0.3,0-0.5,0.2-0.5,0.5v3c0,0.3,0.2,0.5,0.5,0.5s0.5-0.2,0.5-0.5v-3
		C46,120.7,45.8,120.5,45.5,120.5z"/>
	<path class="st1" d="M41.5,128.5c-0.3,0-0.5,0.2-0.5,0.5v3c0,0.3,0.2,0.5,0.5,0.5s0.5-0.2,0.5-0.5v-3
		C42,128.7,41.8,128.5,41.5,128.5z"/>
	<path class="st1" d="M41.5,120.5c-0.3,0-0.5,0.2-0.5,0.5v3c0,0.3,0.2,0.5,0.5,0.5s0.5-0.2,0.5-0.5v-3
		C42,120.7,41.8,120.5,41.5,120.5z"/>
	<path class="st1" d="M37.5,128.5c-0.3,0-0.5,0.2-0.5,0.5v3c0,0.3,0.2,0.5,0.5,0.5s0.5-0.2,0.5-0.5v-3
		C38,128.7,37.8,128.5,37.5,128.5z"/>
	<path class="st1" d="M37.5,120.5c-0.3,0-0.5,0.2-0.5,0.5v3c0,0.3,0.2,0.5,0.5,0.5s0.5-0.2,0.5-0.5v-3
		C38,120.7,37.8,120.5,37.5,120.5z"/>
	<path class="st1" d="M33.5,128.5c-0.3,0-0.5,0.2-0.5,0.5v3c0,0.3,0.2,0.5,0.5,0.5s0.5-0.2,0.5-0.5v-3
		C34,128.7,33.8,128.5,33.5,128.5z"/>
	<path class="st1" d="M33.5,120.5c-0.3,0-0.5,0.2-0.5,0.5v3c0,0.3,0.2,0.5,0.5,0.5s0.5-0.2,0.5-0.5v-3
		C34,120.7,33.8,120.5,33.5,120.5z"/>
	<path class="st1" d="M29.5,128.5c-0.3,0-0.5,0.2-0.5,0.5v3c0,0.3,0.2,0.5,0.5,0.5s0.5-0.2,0.5-0.5v-3
		C30,128.7,29.8,128.5,29.5,128.5z"/>
	<path class="st1" d="M29.5,120.5c-0.3,0-0.5,0.2-0.5,0.5v3c0,0.3,0.2,0.5,0.5,0.5s0.5-0.2,0.5-0.5v-3
		C30,120.7,29.8,120.5,29.5,120.5z"/>
	<path class="st1" d="M77,113c-0.6,0-1,0.4-1,1v1c0,0.6,0.4,1,1,1s1-0.4,1-1v-1C78,113.4,77.6,113,77,113z"/>
	<path class="st1" d="M75.5,136.5c-0.3,0-0.5,0.2-0.5,0.5v1c0,0.3,0.2,0.5,0.5,0.5s0.5-0.2,0.5-0.5v-1
		C76,136.7,75.8,136.5,75.5,136.5z"/>
	<path class="st1" d="M78.5,136.5c-0.3,0-0.5,0.2-0.5,0.5v1c0,0.3,0.2,0.5,0.5,0.5s0.5-0.2,0.5-0.5v-1
		C79,136.7,78.8,136.5,78.5,136.5z"/>
	<path class="st1" d="M56,113c-0.6,0-1,0.4-1,1v1c0,0.6,0.4,1,1,1s1-0.4,1-1v-1C57,113.4,56.6,113,56,113z"/>
	<path class="st1" d="M54.5,136.5c-0.3,0-0.5,0.2-0.5,0.5v1c0,0.3,0.2,0.5,0.5,0.5s0.5-0.2,0.5-0.5v-1
		C55,136.7,54.8,136.5,54.5,136.5z"/>
	<path class="st1" d="M57.5,136.5c-0.3,0-0.5,0.2-0.5,0.5v1c0,0.3,0.2,0.5,0.5,0.5s0.5-0.2,0.5-0.5v-1
		C58,136.7,57.8,136.5,57.5,136.5z"/>
	<path class="st1" d="M64.5,135.5c-0.3,0-0.5,0.2-0.5,0.5v3c0,0.3,0.2,0.5,0.5,0.5s0.5-0.2,0.5-0.5v-3
		C65,135.7,64.8,135.5,64.5,135.5z"/>
	<path class="st1" d="M31.5,135.5c-0.3,0-0.5,0.2-0.5,0.5v3c0,0.3,0.2,0.5,0.5,0.5s0.5-0.2,0.5-0.5v-3
		C32,135.7,31.8,135.5,31.5,135.5z"/>
	<path class="st1" d="M35.5,135.5c-0.3,0-0.5,0.2-0.5,0.5v3c0,0.3,0.2,0.5,0.5,0.5s0.5-0.2,0.5-0.5v-3
		C36,135.7,35.8,135.5,35.5,135.5z"/>
	<path class="st1" d="M39.5,135.5c-0.3,0-0.5,0.2-0.5,0.5v3c0,0.3,0.2,0.5,0.5,0.5s0.5-0.2,0.5-0.5v-3
		C40,135.7,39.8,135.5,39.5,135.5z"/>
	<path class="st1" d="M43.5,135.5c-0.3,0-0.5,0.2-0.5,0.5v3c0,0.3,0.2,0.5,0.5,0.5s0.5-0.2,0.5-0.5v-3
		C44,135.7,43.8,135.5,43.5,135.5z"/>
	<path class="st1" d="M47.5,135.5c-0.3,0-0.5,0.2-0.5,0.5v3c0,0.3,0.2,0.5,0.5,0.5s0.5-0.2,0.5-0.5v-3
		C48,135.7,47.8,135.5,47.5,135.5z"/>
	<path class="st1" d="M68.5,135.5c-0.3,0-0.5,0.2-0.5,0.5v3c0,0.3,0.2,0.5,0.5,0.5s0.5-0.2,0.5-0.5v-3
		C69,135.7,68.8,135.5,68.5,135.5z"/>
	<path class="st1" d="M23,110c-0.6,0-1,0.4-1,1v1c0,0.6,0.4,1,1,1s1-0.4,1-1v-1C24,110.4,23.6,110,23,110z"/>
	<path class="st1" d="M21.5,136.5c-0.3,0-0.5,0.2-0.5,0.5v1c0,0.3,0.2,0.5,0.5,0.5s0.5-0.2,0.5-0.5v-1
		C22,136.7,21.8,136.5,21.5,136.5z"/>
	<path class="st1" d="M24.5,136.5c-0.3,0-0.5,0.2-0.5,0.5v1c0,0.3,0.2,0.5,0.5,0.5s0.5-0.2,0.5-0.5v-1
		C25,136.7,24.8,136.5,24.5,136.5z"/>
	<path class="st1" d="M21.5,115.5c-0.3,0-0.5,0.2-0.5,0.5v1c0,0.3,0.2,0.5,0.5,0.5s0.5-0.2,0.5-0.5v-1
		C22,115.7,21.8,115.5,21.5,115.5z"/>
	<path class="st1" d="M24.5,115.5c-0.3,0-0.5,0.2-0.5,0.5v1c0,0.3,0.2,0.5,0.5,0.5s0.5-0.2,0.5-0.5v-1
		C25,115.7,24.8,115.5,24.5,115.5z"/>
</g>
<g id="Tree">
	<path class="st1" d="M326,140c-0.6,0-1-0.4-1-1v-9c0-0.6,0.4-1,1-1s1,0.4,1,1v9C327,139.6,326.6,140,326,140z"/>
	<path class="st1" d="M326,134c-4.4-0.1-7.9-3.8-7.8-8.2c0.1-4.4,3.8-7.9,8.2-7.8c4.3,0.1,7.8,3.7,7.8,8
		C334.2,130.5,330.5,134.1,326,134z M326,120c-3.3,0.1-5.9,2.9-5.8,6.2c0.1,3.3,2.9,5.9,6.2,5.8c3.2-0.1,5.8-2.8,5.8-6
		C332.2,122.6,329.4,119.9,326,120z"/>
</g>
<g id="Tree-2">
	<path class="st1" d="M351,140c-0.6,0-1-0.4-1-1v-9c0-0.6,0.4-1,1-1s1,0.4,1,1v9C352,139.6,351.6,140,351,140z"/>
	<path class="st1" d="M351,134c-4.4-0.1-7.9-3.8-7.8-8.2c0.1-4.4,3.8-7.9,8.2-7.8c4.3,0.1,7.8,3.7,7.8,8
		C359.2,130.5,355.5,134.1,351,134z M351,120c-3.3,0.1-5.9,2.9-5.8,6.2c0.1,3.3,2.9,5.9,6.2,5.8c3.2-0.1,5.8-2.8,5.8-6
		C357.2,122.6,354.4,119.9,351,120z"/>
</g>
<g id="Tree-3">
	<path class="st1" d="M109,140c-0.6,0-1-0.4-1-1v-9c0-0.6,0.4-1,1-1s1,0.4,1,1v9C110,139.6,109.6,140,109,140z"/>
	<path class="st1" d="M109,134c-4.4-0.1-7.9-3.8-7.8-8.2c0.1-4.4,3.8-7.9,8.2-7.8c4.3,0.1,7.8,3.7,7.8,8
		C117.2,130.5,113.5,134.1,109,134z M109,120c-3.3,0.1-5.9,2.9-5.8,6.2s2.9,5.9,6.2,5.8c3.2-0.1,5.8-2.8,5.8-6
		C115.2,122.6,112.4,119.9,109,120z"/>
</g>
<g id="Tree-4">
	<path class="st1" d="M145,140c-0.6,0-1-0.4-1-1v-9c0-0.6,0.4-1,1-1s1,0.4,1,1v9C146,139.6,145.6,140,145,140z"/>
	<path class="st1" d="M145,134c-4.4-0.1-7.9-3.8-7.8-8.2c0.1-4.4,3.8-7.9,8.2-7.8c4.3,0.1,7.8,3.7,7.8,8
		C153.2,130.5,149.5,134.1,145,134z M145,120c-3.3,0.1-5.9,2.9-5.8,6.2c0.1,3.3,2.9,5.9,6.2,5.8c3.2-0.1,5.8-2.8,5.8-6
		C151.2,122.6,148.4,119.9,145,120z"/>
</g>
<g id="Building_7_London">
	<g>
		<defs>
			<path id="SVGID_2_" d="M191,137h-21.2l-2.8-22.6l0.2-0.2v0.2c1.6-2.2,3-4.5,4-7c0.7,0.8,1.7,1.2,2.8,1.2c1.7,0,3-1.3,3-3
				s-1.3-3-3-3c-0.4,0-0.8,0.1-1.1,0.2c1.4-5.3,1.5-10.9,0.2-16.3c0.3,0.1,0.6,0.1,0.9,0.1c1.7,0,3-1.3,3-3s-1.3-3-3-3
				c-0.9,0-1.8,0.3-2.4,0.9c-2-5-5.2-9.5-9.3-13.1c1.3-0.3,2.2-1.5,2.3-2.8c-0.1-1.7-1.6-3-3.3-3l5.2,44.7l-1.6,1.9l3.3,28H130v-26
				h3.1l6.6-55.5c-1.7,0-3.1,1.3-3.2,3c0,0.6,0.2,1.2,0.6,1.6c-5.2,0.4-10.2,2.1-14.6,4.8c-0.5-1.5-1.9-2.5-3.4-2.4
				c-1.8-0.1-3.3,1.2-3.5,3c0.1,1.3,1,2.5,2.3,2.8c-4.1,3.5-7.3,8-9.3,13.1c-0.7-0.6-1.6-0.9-2.4-0.9c-1.7,0-3,1.3-3,3s1.3,3,3,3
				c0.3,0,0.6,0,0.9-0.1c-1.2,5.4-1.2,10.9,0.2,16.3c-0.4-0.1-0.7-0.2-1.1-0.2c-1.7,0-3,1.3-3,3s1.3,3,3,3c1,0,2-0.4,2.7-1.2
				c2.2,5.2,5.7,9.8,10.2,13.3c-1.4,0.3-2.3,1.5-2.4,2.8c0.2,1.8,1.7,3.1,3.5,3c1.7,0.1,3.2-1.1,3.5-2.8c1.5,0.8,3,1.5,4.5,2.1v5.2
				h-16c-0.6,0-1,0.4-1,1s0.4,1,1,1h3v4h-10c-1.1,0-2,0.9-2,2s0.9,2,2,2h86c1.1,0,2-0.9,2-2S192.1,137,191,137z"/>
		</defs>
		<clipPath id="SVGID_3_">
			<use xlink:href="#SVGID_2_"  style="overflow:visible;"/>
		</clipPath>
		<g class="st2">
			<g id="Building_6">
				<path class="st1" d="M175,141h-70c-1.1,0-2-0.9-2-2s0.9-2,2-2h70c1.1,0,2,0.9,2,2S176.1,141,175,141z"/>
				<path class="st1" d="M174,102.5c-0.4,0-0.8,0.1-1.1,0.2c1.4-5.3,1.5-10.9,0.3-16.3c0.3,0.1,0.6,0.1,0.9,0.1c1.7,0,3-1.3,3-3
					s-1.3-3-3-3c-0.9,0-1.8,0.3-2.4,0.9c-2-5-5.2-9.5-9.3-13.1c1.3-0.3,2.2-1.5,2.3-2.8c-0.1-1.8-1.7-3.1-3.5-3
					c-1.6-0.1-3,0.9-3.4,2.4c-4.4-2.7-9.5-4.3-14.6-4.8c0.4-0.5,0.6-1,0.6-1.6c-0.3-1.9-2.1-3.3-4-3c-1.5,0.2-2.7,1.4-3,3
					c0,0.6,0.2,1.2,0.6,1.6c-5.2,0.4-10.2,2.1-14.6,4.8c-0.5-1.5-1.9-2.5-3.4-2.4c-1.8-0.1-3.4,1.2-3.5,3c0.1,1.3,1,2.5,2.3,2.8
					c-4.1,3.5-7.3,8-9.3,13.1c-0.7-0.6-1.6-0.9-2.4-0.9c-1.7,0-3,1.3-3,3s1.3,3,3,3c0.3,0,0.6,0,0.9-0.1c-1.2,5.4-1.1,11,0.3,16.3
					c-0.4-0.1-0.7-0.2-1.1-0.2c-1.7,0-3,1.3-3,3s1.3,3,3,3c1,0,2-0.4,2.7-1.2c2.2,5.2,5.7,9.8,10.2,13.3c-1.4,0.3-2.3,1.5-2.4,2.8
					c0.3,1.9,2.1,3.3,4,3c1.5-0.2,2.7-1.3,3-2.8c2.4,1.3,4.9,2.4,7.6,3.1l-0.8,4.2H112c-0.6,0-1,0.4-1,1s0.4,1,1,1h3v6
					c0,0.6,0.4,1,1,1h47c0.6,0,1-0.4,1-1v-6h4c0.6,0,1-0.4,1-1s-0.4-1-1-1h-18.3l-0.8-4.2c2.6-0.7,5.2-1.8,7.6-3.1
					c0.4,1.9,2.2,3.2,4.2,2.8c1.5-0.3,2.6-1.5,2.8-3c-0.1-1.4-1.1-2.5-2.4-2.8c4.5-3.5,8-8.1,10.2-13.3c0.7,0.7,1.7,1.1,2.7,1.1
					c1.7,0,3-1.3,3-3S175.7,102.5,174,102.5z M166.7,111.6l-1.1-4c0.1-0.3,0.3-0.5,0.4-0.8l3.9-1.5
					C169.1,107.5,168,109.6,166.7,111.6z M165.8,112.9l-4,0.2c1.2-1.3,2.2-2.8,3.1-4.3l1.1,3.8L165.8,112.9z M149.8,124.5l-1.4-0.9
					l-0.3-1.7c1.2-0.3,2.3-0.7,3.5-1.2l-1.5,3.7L149.8,124.5z M152,133v5h-4v-5H152z M153,133h4v5h-4V133z M147,133v5h-4v-5H147z
					 M128,133h4v5h-4V133z M127,138h-4v-5h4V138z M133,133h4v5h-4V133z M130,124.4l-1.4-3.7c1.1,0.5,2.3,0.9,3.5,1.2l-0.3,1.7
					l-1.4,0.9L130,124.4z M110.1,105.3l3.9,1.5c0.1,0.3,0.3,0.6,0.4,0.8l-1.1,4C112,109.6,110.9,107.5,110.1,105.3L110.1,105.3z
					 M113.3,76.4l1.1,4c-0.1,0.3-0.3,0.5-0.4,0.8l-3.9,1.5C110.9,80.5,112,78.4,113.3,76.4L113.3,76.4z M114.3,75.1l4-0.2
					c-1.2,1.3-2.2,2.8-3.2,4.3l-1.1-3.8L114.3,75.1z M130.3,63.5l3.3,2.2c-1.7,0.4-3.4,0.9-5.1,1.6l1.5-3.7L130.3,63.5z M150,63.6
					l1.4,3.7c-1.6-0.7-3.3-1.3-5.1-1.6l3.3-2.2L150,63.6z M169.9,82.7l-3.9-1.5c-0.1-0.3-0.3-0.6-0.4-0.8l1.1-4
					C168,78.4,169.1,80.5,169.9,82.7L169.9,82.7z M156.7,115.2l-13.4-18.5l-0.2-1.1c0.1-0.2,0.2-0.4,0.3-0.6l22.4,7.3
					C164,107.4,160.9,111.9,156.7,115.2L156.7,115.2z M147.7,119.9l-3.9-20.8l12.2,16.8C153.4,117.7,150.6,119,147.7,119.9
					L147.7,119.9z M142.5,129.5c0,0.6-0.3,1.2-0.9,1.5h-3.3c-0.8-0.5-1.1-1.6-0.6-2.4c0.2-0.3,0.4-0.5,0.6-0.6c0.5,0,1,0,1.6,0
					s1.1,0,1.6,0C142.2,128.3,142.5,128.9,142.5,129.5L142.5,129.5z M140,126h-0.2l-2.5-3.1c0.9,0.1,1.8,0.1,2.7,0.1s1.8,0,2.7-0.1
					l-2.5,3.1H140z M125,116.4l10.9-15l-3.5,18.5C129.8,119.2,127.3,118,125,116.4z M114.7,103.3l22.2-7.2l-0.6,3l-12.2,16.8
					C119.8,112.7,116.5,108.3,114.7,103.3L114.7,103.3z M109.6,103.7l2.2-3.3c0.4,1.7,0.9,3.4,1.6,5.1l-3.8-1.5L109.6,103.7z
					 M108,94c0-0.1,0-0.1,0-0.2l3.1-2.5c-0.1,0.9-0.1,1.8-0.1,2.7s0,1.8,0.1,2.7l-3.1-2.5C108,94.1,108,94.1,108,94z M109.6,84
					l3.7-1.4c-0.7,1.6-1.3,3.3-1.6,5.1l-2.2-3.3L109.6,84z M123.3,72.8l13.9,19.1c-0.2,0.3-0.4,0.6-0.5,1l-22.4-7.3
					C116,80.6,119.1,76.1,123.3,72.8L123.3,72.8z M139,67v23.7c-0.4,0.1-0.7,0.3-1.1,0.5l-13.8-19C128.5,69,133.6,67.2,139,67z
					 M140,62h0.2l2.5,3.1c-0.9-0.1-1.8-0.1-2.7-0.1s-1.8,0-2.7,0.1l2.5-3.1L140,62z M155,71.6l-13.9,19.1c-0.4-0.1-0.8-0.2-1.1-0.2
					V67C145.3,67,150.6,68.6,155,71.6z M165.3,84.7L142.9,92c-0.2-0.3-0.5-0.6-0.8-0.8l13.8-19C160.2,75.3,163.5,79.7,165.3,84.7
					L165.3,84.7z M170.4,84.3l-2.2,3.3c-0.4-1.7-0.9-3.4-1.6-5.1l3.8,1.5L170.4,84.3z M172,94c0,0.1,0,0.1,0,0.2l-3.1,2.5
					c0.1-0.9,0.1-1.8,0.1-2.7s0-1.8-0.1-2.7l3.1,2.5C172,93.9,172,93.9,172,94z M140,121c-1.3,0-2.5-0.1-3.8-0.3l3.8-19.9V121z
					 M141,106.1l2.8,14.6c-0.9,0.1-1.8,0.2-2.8,0.3V106.1z M113,94c0-2.5,0.3-5,1-7.4l22.5,7.3c0,0,0,0.1,0,0.1
					c0,0.4,0.1,0.7,0.2,1.1l-22.4,7.3C113.4,99.6,113,96.8,113,94z M141.9,92.3l-0.9,0.3l0.5-0.6C141.6,92.1,141.7,92.2,141.9,92.3
					L141.9,92.3z M140,92.3v-0.8c0.2,0,0.4,0,0.5,0.1L140,92.3z M139,92.7l-0.5-0.6c0.1-0.1,0.3-0.2,0.5-0.3V92.7z M138.4,93.5
					l-0.8-0.2c0.1-0.2,0.1-0.3,0.2-0.5L138.4,93.5z M138.4,94.6l-0.8,0.2c-0.1-0.2-0.1-0.3-0.1-0.5L138.4,94.6z M137.8,96.7l0.2,0.1
					l-0.3,0.3L137.8,96.7z M138.5,96L138.5,96L138.5,96z M141,96h0.4l0,0c-0.1,0.1-0.3,0.2-0.5,0.3L141,96z M142.3,95H142l-0.4-0.5
					l0.8,0.2C142.3,94.8,142.3,94.9,142.3,95z M141.6,93.5l0.8-0.2c0.1,0.2,0.1,0.3,0.1,0.5L141.6,93.5z M143.3,92.9l22.4-7.3
					c1.7,5.1,1.8,10.6,0.3,15.7l-22.5-7.3c0,0,0-0.1,0-0.1C143.5,93.6,143.4,93.3,143.3,92.9z M137.2,99.5l1.6-2.2
					c0.2,0.1,0.3,0.1,0.5,0.2l0.1,0.7l-4.2,22.4c-0.6-0.1-1.3-0.2-1.9-0.4L137.2,99.5z M133.6,122.3l-0.8,0.5l0.1-0.7L133.6,122.3z
					 M144.7,120.6l-3.7-19.8v-3.4c0.4-0.1,0.7-0.3,1.1-0.5l0.3,0.4l4.4,23C146,120.3,145.4,120.5,144.7,120.6L144.7,120.6z
					 M147,122.1l0.1,0.7l-0.8-0.5L147,122.1z M168.3,100.4l2.2,3.3l-0.1,0.3l-3.7,1.4C167.3,103.8,167.9,102.1,168.3,100.4
					L168.3,100.4z M168.6,99c0.1-0.3,0.1-0.6,0.1-0.9l3.2-2.6c-0.1,2.4-0.5,4.7-1.1,7L168.6,99z M168.7,89.9c0-0.3-0.1-0.6-0.1-0.9
					l2.3-3.5c0.6,2.3,1,4.6,1.1,7L168.7,89.9z M166,75.3l-1.1,3.8c-0.9-1.5-2-3-3.1-4.3l4,0.2L166,75.3z M154.8,69.1l3.8-1.1
					l0.3,0.2l0.2,4C157.8,71,156.3,70,154.8,69.1L154.8,69.1z M153.6,68.4l-0.8-0.4l-1.5-3.9c2.2,0.8,4.3,1.9,6.3,3.2L153.6,68.4z
					 M145,65.4l-0.9-0.2l-2.6-3.3c2.4,0.1,4.7,0.5,7,1.1L145,65.4z M135.9,65.3l-0.9,0.2l-3.5-2.3c2.3-0.6,4.6-1,7-1.1L135.9,65.3z
					 M127.2,68l-0.8,0.4l-4-1.1c2-1.3,4.1-2.4,6.3-3.2L127.2,68z M121.3,68.1l3.8,1.1c-1.5,0.9-3,2-4.3,3.2l0.2-4L121.3,68.1z
					 M111.4,89.1c-0.1,0.3-0.1,0.6-0.2,0.9l-3.3,2.6c0.1-2.4,0.5-4.7,1.1-7L111.4,89.1z M111.3,98.1c0,0.3,0.1,0.6,0.2,0.9l-2.3,3.5
					c-0.6-2.3-1-4.6-1.1-7L111.3,98.1z M114,112.7l1.1-3.8c0.9,1.5,2,3,3.2,4.3l-4-0.2L114,112.7z M125.2,118.9l-3.8,1.1l-0.3-0.2
					l-0.2-4C122.2,117,123.7,118,125.2,118.9L125.2,118.9z M122.4,120.7l4-1.1l0.8,0.4l1.5,3.9C126.5,123.1,124.4,122,122.4,120.7
					L122.4,120.7z M132.6,124.2l2.3-1.5l-0.5,2.8c-0.7-0.1-1.3-0.2-1.9-0.4L132.6,124.2z M135.8,122.7L135.8,122.7l2.7,3.2
					c-1.1,0-2.2-0.2-3.2-0.3L135.8,122.7z M137.1,127.9c-0.4,0.5-0.6,1-0.6,1.6c0,0.5,0.2,1.1,0.5,1.5h-2.7l0.6-3.4
					C135.6,127.7,136.4,127.8,137.1,127.9L137.1,127.9z M138,133h4v5h-4V133z M143,131c0.3-0.4,0.5-1,0.5-1.5c0-0.6-0.2-1.2-0.6-1.6
					c0.7-0.1,1.4-0.1,2.1-0.2l0.6,3.4L143,131z M141.5,126l2.6-3.2h0.1l0.6,3C143.6,125.9,142.5,126,141.5,126L141.5,126z
					 M145.1,122.7l2.3,1.5l0.2,0.9c-0.6,0.2-1.3,0.3-1.9,0.4L145.1,122.7z M152.7,120.1l0.8-0.4l4,1.1c-2,1.3-4.1,2.4-6.3,3.2
					L152.7,120.1z M158.6,120l-3.8-1.1c1.5-0.9,3-2,4.3-3.2l-0.2,4L158.6,120z M174,81.5c1.1-0.2,2.2,0.4,2.4,1.6
					c0.2,1.1-0.4,2.2-1.6,2.4c-0.3,0.1-0.6,0.1-0.9,0c-0.4,0-0.8-0.1-1.1-0.2c-0.3-1-0.6-2-0.9-2.9C172.5,81.8,173.2,81.5,174,81.5z
					 M165,74l-4.2-0.2l-0.6-0.6L160,69C161.8,70.5,163.5,72.2,165,74z M161,63.5c1.2-0.1,2.3,0.8,2.5,2c-0.1,1.2-1.1,2-2.3,2
					c-0.9-0.7-1.8-1.4-2.7-2C158.7,64.3,159.8,63.4,161,63.5z M137.5,58.5c0.3-1.4,1.7-2.3,3.1-1.9c1,0.2,1.7,1,1.9,1.9
					c0,0.6-0.4,1.2-0.9,1.5c-0.5,0-1,0-1.6,0s-1.1,0-1.6,0C137.9,59.7,137.5,59.1,137.5,58.5z M116.5,65.5c0.3-1.4,1.7-2.3,3.1-1.9
					c1,0.2,1.7,1,1.9,1.9l0,0c0-0.3-0.2-0.5-0.5-0.5h-2c-0.3,0-0.5,0.2-0.5,0.5s0.2,0.5,0.5,0.5h1.7c-0.7,0.5-1.3,1-2,1.5
					C117.6,67.5,116.6,66.6,116.5,65.5z M120,69l-0.2,4.2l-0.6,0.6L115,74C116.5,72.2,118.2,70.5,120,69z M106,85.5
					c-1.1,0-2-0.9-2-2s0.9-2,2-2c0.8,0,1.5,0.3,2.1,0.9c-0.1,0.2-0.1,0.4-0.2,0.6H106c-0.3,0-0.5,0.2-0.5,0.5s0.2,0.5,0.5,0.5h1.5
					c-0.1,0.4-0.2,0.8-0.4,1.3C106.8,85.4,106.4,85.5,106,85.5z M106,107.5c-1.1,0.2-2.2-0.4-2.4-1.6c-0.2-1.1,0.4-2.2,1.5-2.4
					c0.3-0.1,0.6-0.1,0.9,0c0.5,0,1,0.1,1.5,0.4c0.1,0.4,0.2,0.7,0.4,1.1H106c-0.3,0-0.5,0.2-0.5,0.5s0.2,0.5,0.5,0.5h2
					c0.1,0,0.1,0,0.2,0l0.1,0.3C107.8,107.1,106.9,107.5,106,107.5z M115,114l4.2,0.2l0.6,0.6l0.2,4.2
					C118.2,117.5,116.5,115.8,115,114L115,114z M122.5,123.5c0.3,1.4-0.6,2.7-1.9,3.1c-1.4,0.3-2.7-0.6-3.1-1.9
					c-0.3-1.4,0.6-2.7,1.9-3.1c0.2,0,0.4-0.1,0.6-0.1l0,0c0.8,0.6,1.6,1.1,2.4,1.6C122.4,123.2,122.5,123.4,122.5,123.5L122.5,123.5
					z M132,127.1c0.6,0.2,1.3,0.3,1.9,0.4l-0.7,3.5h-2L132,127.1z M117,133.1h5v5h-5V133.1z M162,138.1h-4v-5h4V138.1z M148.7,131.1
					h-2l-0.7-3.6c0.7-0.1,1.3-0.2,1.9-0.4L148.7,131.1z M160,121.5c1.1,0.2,1.8,1.3,1.6,2.4c-0.2,1.1-1.3,1.8-2.4,1.6
					c-0.9-0.2-1.6-1-1.6-2c0-0.1,0-0.3,0-0.4C158.3,122.6,159.1,122.1,160,121.5L160,121.5z M160,119l0.2-4.2l0.6-0.6l4.2-0.2
					C163.5,115.8,161.8,117.5,160,119L160,119z M174,107.5c-0.9,0-1.8-0.4-2.3-1.2c0.3-0.8,0.6-1.6,0.8-2.4c0.4-0.3,1-0.4,1.5-0.4
					c1.1,0,2,0.9,2,2S175.1,107.5,174,107.5z"/>
				<path class="st1" d="M142,58h-2c-0.3,0-0.5,0.2-0.5,0.5s0.2,0.5,0.5,0.5h2c0.3,0,0.5-0.2,0.5-0.5S142.3,58,142,58z"/>
				<path class="st1" d="M163,65h-2c-0.3,0-0.5,0.2-0.5,0.5s0.2,0.5,0.5,0.5h2c0.3,0,0.5-0.2,0.5-0.5S163.3,65,163,65z"/>
				<path class="st1" d="M176,83h-2c-0.3,0-0.5,0.2-0.5,0.5s0.2,0.5,0.5,0.5h2c0.3,0,0.5-0.2,0.5-0.5S176.3,83,176,83z"/>
				<path class="st1" d="M176,105h-2c-0.3,0-0.5,0.2-0.5,0.5s0.2,0.5,0.5,0.5h2c0.3,0,0.5-0.2,0.5-0.5S176.3,105,176,105z"/>
				<path class="st1" d="M162,123h-2c-0.3,0-0.5,0.2-0.5,0.5s0.2,0.5,0.5,0.5h2c0.3,0,0.5-0.2,0.5-0.5S162.3,123,162,123z"/>
				<path class="st1" d="M142,129h-2c-0.3,0-0.5,0.2-0.5,0.5s0.2,0.5,0.5,0.5h2c0.3,0,0.5-0.2,0.5-0.5S142.3,129,142,129z"/>
				<path class="st1" d="M122,123h-2c-0.3,0-0.5,0.2-0.5,0.5s0.2,0.5,0.5,0.5h2c0.3,0,0.5-0.2,0.5-0.5S122.3,123,122,123z"/>
			</g>
		</g>
	</g>
</g>
<g id="Building_6_London">
	<g>
		<defs>
			<path id="SVGID_4_" d="M191,137h-21.1L154,0.9c0-0.6-0.4-1-0.9-1.1c-0.6,0-1,0.4-1.1,0.9l-2.1,7.8L148,2.7
				c-0.2-0.5-0.7-0.8-1.3-0.6c-0.4,0.1-0.6,0.4-0.7,0.8L133.1,111H129c-0.6,0-1,0.4-1,1v25h-19c-1.1,0-2,0.9-2,2s0.9,2,2,2h82
				c1.1,0,2-0.9,2-2S192.1,137,191,137z M146,133.7v4.8c0,0.6-0.4,1-1,1s-1-0.4-1-1v-4.8c-3.9-0.4-6.9-3.6-6.8-7.5
				c0-4.3,3.5-7.8,7.8-7.8c4.3,0,7.8,3.5,7.8,7.8C152.9,130.1,149.9,133.3,146,133.7z"/>
		</defs>
		<clipPath id="SVGID_5_">
			<use xlink:href="#SVGID_4_"  style="overflow:visible;"/>
		</clipPath>
		<g class="st3">
			<path class="st1" d="M191,137h-21.1L154,0.9c-0.1-0.5-0.4-0.8-0.9-0.9c-0.5,0-0.9,0.3-1,0.7l-2.2,7.8l-2-5.9
				c-0.1-0.4-0.6-0.7-1-0.7c-0.5,0-0.8,0.4-0.9,0.9L133.1,111H129c-0.6,0-1,0.4-1,1v25h-19c-1.1,0-2,0.9-2,2s0.9,2,2,2h82
				c1.1,0,2-0.9,2-2S192.1,137,191,137z M167.9,137H166v-6h1.2L167.9,137z M159,137h-4v-6h4V137z M164,137h-4v-6h4V137z M151,12.1
				l1.6-5.9L166.9,129H151V12.1z M154,131v6h-3v-6H154z M145,131v6h-4v-6H145z M139.6,129l7.9-84.8l1.5-2.5V129H139.6z M146,131h3v6
				h-3V131z M135,112.1L147.5,7.6l1.5,4.6v27.5l-2.4,4c0,0.1-0.1,0.1-0.1,0.2l-7.9,85h-4.2L135,112.1z M140,131v6h-5.9l0.2-6H140z
				 M130,113h3l-0.9,24H130V113z"/>
		</g>
	</g>
</g>
<g id="Building_4_London">
	<g>
		<defs>
			<path id="SVGID_6_" d="M299,139c0,1.1-0.9,2-2,2H191c1.1,0,2-0.9,2-2s-0.9-2-2-2h-21.1l-2.1-18.3c10.3-6.7,14.5-12.8,15.2-14V99
				c-0.3,0-0.5-0.2-0.5-0.5s0.2-0.5,0.5-0.5v-5c0-0.1,0-0.2,0-0.2l2-7.9V82c0-0.3,0.2-0.5,0.5-0.5s0.5,0.2,0.5,0.5v2
				c0.5,0,0.9,0.3,1,0.8l1,4l2-8.8V78c0-0.6,0.4-1,1-1s1,0.4,1,1v1.9l2,8.8l1-4c0.1-0.5,0.5-0.8,1-0.8v-2c0-0.3,0.2-0.5,0.5-0.5
				s0.5,0.2,0.5,0.5v2.9l2,7.9c0,0.1,0,0.2,0,0.2v5c0.3,0,0.5,0.2,0.5,0.5S199.3,99,199,99v2h20v-0.5c0-0.3,0.2-0.5,0.5-0.5
				c0,0,0,0,0,0h0.5c0-0.1,0-0.3,0.1-0.3c0.2-0.2,0.5-0.2,0.7,0c0.1,0.1,0.1,0.2,0.1,0.4h2c0-0.1,0.1-0.3,0.1-0.3
				c0.2-0.2,0.5-0.2,0.7,0c0.1,0.1,0.1,0.2,0.1,0.4h0.5c0.3,0,0.5,0.2,0.5,0.5c0,0,0,0,0,0v0.5h20v-2c-0.3,0-0.5-0.2-0.5-0.5
				s0.2-0.5,0.5-0.5v-5c0-0.1,0-0.2,0-0.2l2-7.9V82c0-0.3,0.2-0.5,0.5-0.5s0.5,0.2,0.5,0.5v2c0.5,0,0.9,0.3,1,0.8l1,4l2-8.8V78
				c0-0.6,0.4-1,1-1s1,0.4,1,1v1.9l2,8.8l1-4c0.1-0.5,0.5-0.8,1-0.8v-2c0-0.3,0.2-0.5,0.5-0.5s0.5,0.2,0.5,0.5v2.9l2,7.9
				c0,0.1,0,0.2,0,0.2v5c0.3,0,0.5,0.2,0.5,0.5S261.3,99,261,99v5.7c1.1,1.8,9.9,14.3,34.4,23.4l0,0c0.1,0,0.1,0.1,0.2,0.1
				c0,0,0.1,0,0.1,0.1c0,0.1,0.1,0.1,0.1,0.2c0.1,0.1,0.1,0.2,0.1,0.3c0,0.1,0,0.2,0,0.2v8h1c1.1,0,2,0.8,2.1,1.9
				C299,138.9,299,139,299,139z"/>
		</defs>
		<clipPath id="SVGID_7_">
			<use xlink:href="#SVGID_6_"  style="overflow:visible;"/>
		</clipPath>
		<g class="st4">
			<g id="Building_4">
				<path class="st1" d="M297,141H147c-1.1,0-2-0.9-2-2s0.9-2,2-2h150c1.1,0,2,0.9,2,2S298.1,141,297,141z"/>
				<path class="st1" d="M201,140h-20c-0.6,0-1-0.4-1-1v-10c0-0.6,0.4-1,1-1h20c0.6,0,1,0.4,1,1v10C202,139.6,201.6,140,201,140z
					 M182,138h18v-8h-18V138z"/>
				<path class="st1" d="M243,130h-42c-0.6,0-1-0.4-1-1s0.4-1,1-1h42c0.6,0,1,0.4,1,1S243.6,130,243,130z"/>
				<path class="st1" d="M181,130h-32c-0.6,0-1-0.4-1-1s0.4-1,1-1h32c0.6,0,1,0.4,1,1S181.6,130,181,130z"/>
				<path class="st1" d="M295,130h-32c-0.6,0-1-0.4-1-1s0.4-1,1-1h32c0.6,0,1,0.4,1,1S295.6,130,295,130z"/>
				<path class="st1" d="M201,134.5c-0.3,0-0.5-0.2-0.5-0.5s0.2-0.5,0.5-0.5l21-3c0.3,0,0.5,0.2,0.6,0.4c0,0.3-0.2,0.5-0.4,0.6
					L201,134.5L201,134.5z"/>
				<path class="st1" d="M243,134.5L243,134.5l-21.1-3c-0.3,0-0.5-0.3-0.4-0.6c0-0.3,0.3-0.5,0.6-0.4l21,3c0.3,0,0.5,0.3,0.5,0.5
					S243.3,134.5,243,134.5L243,134.5z"/>
				<path class="st1" d="M198,134.5c-0.1,0-0.1,0-0.2,0c0,0-4.9-2-6.8-2s-6.8,1.9-6.8,2c-0.3,0.1-0.5,0-0.6-0.3s0-0.5,0.3-0.6
					c0.2-0.1,5.1-2,7.2-2s7,2,7.2,2c0.3,0.1,0.5,0.3,0.4,0.6S198.3,134.6,198,134.5L198,134.5L198,134.5z"/>
				<path class="st1" d="M263,140h-20c-0.6,0-1-0.4-1-1v-10c0-0.6,0.4-1,1-1h20c0.6,0,1,0.4,1,1v10C264,139.6,263.6,140,263,140z
					 M244,138h18v-8h-18V138z"/>
				<path class="st1" d="M260,134.5c-0.1,0-0.1,0-0.2,0c0,0-4.9-2-6.8-2s-6.8,1.9-6.8,2c-0.3,0.1-0.5,0-0.6-0.3s0-0.5,0.3-0.6
					c0.2-0.1,5.1-2,7.2-2s7,2,7.2,2c0.3,0.1,0.5,0.3,0.4,0.6S260.3,134.6,260,134.5L260,134.5L260,134.5z"/>
				<path class="st1" d="M219,102h-21c-0.3,0-0.5-0.2-0.5-0.5s0.2-0.5,0.5-0.5h21c0.3,0,0.5,0.2,0.5,0.5S219.3,102,219,102z"/>
				<path class="st1" d="M220,105h-22c-0.3,0-0.5-0.2-0.5-0.5s0.2-0.5,0.5-0.5h22c0.3,0,0.5,0.2,0.5,0.5S220.3,105,220,105z"/>
				<path class="st1" d="M246,102h-21c-0.3,0-0.5-0.2-0.5-0.5s0.2-0.5,0.5-0.5h21c0.3,0,0.5,0.2,0.5,0.5S246.3,102,246,102z"/>
				<path class="st1" d="M246,105h-22c-0.3,0-0.5-0.2-0.5-0.5s0.2-0.5,0.5-0.5h22c0.3,0,0.5,0.2,0.5,0.5S246.3,105,246,105z"/>
				<path class="st1" d="M224.5,105h-5c-0.3,0-0.5-0.2-0.5-0.5v-4c0-0.3,0.2-0.5,0.5-0.5h5c0.3,0,0.5,0.2,0.5,0.5v4
					C225,104.8,224.8,105,224.5,105z M220,104h4v-3h-4V104z"/>
				<path class="st1" d="M223.5,100.5c-0.3,0-0.5-0.2-0.5-0.5c0-0.1,0.1-0.3,0.1-0.3c0.2-0.2,0.5-0.2,0.7,0c0.1,0.1,0.1,0.2,0.1,0.4
					c0,0.1,0,0.3-0.1,0.3C223.8,100.5,223.6,100.5,223.5,100.5z"/>
				<path class="st1" d="M220.5,100.5c-0.3,0-0.5-0.2-0.5-0.5c0-0.1,0-0.3,0.1-0.3c0.2-0.2,0.5-0.2,0.7,0c0.1,0.1,0.1,0.2,0.1,0.4
					c0,0.1,0,0.3-0.1,0.3C220.8,100.5,220.6,100.5,220.5,100.5z"/>
				<path class="st1" d="M205,104.5c-0.1,0-0.2,0-0.3-0.1l-2.7-1.8l-2.7,1.8c-0.2,0.2-0.5,0.1-0.7-0.1s-0.1-0.5,0.1-0.7
					c0,0,0,0,0.1-0.1l3-2c0.2-0.1,0.4-0.1,0.6,0l3,2c0.2,0.1,0.3,0.5,0.1,0.7C205.3,104.4,205.2,104.5,205,104.5L205,104.5z"/>
				<path class="st1" d="M211,104.5c-0.1,0-0.2,0-0.3-0.1l-2.7-1.8l-2.7,1.8c-0.2,0.2-0.5,0.1-0.7-0.1s-0.1-0.5,0.1-0.7
					c0,0,0,0,0.1-0.1l3-2c0.2-0.1,0.4-0.1,0.6,0l3,2c0.2,0.1,0.3,0.5,0.1,0.7C211.3,104.4,211.2,104.5,211,104.5L211,104.5z"/>
				<path class="st1" d="M217,104.5c-0.1,0-0.2,0-0.3-0.1l-2.7-1.8l-2.7,1.8c-0.2,0.2-0.5,0.1-0.7-0.1s-0.1-0.5,0.1-0.7
					c0,0,0,0,0.1-0.1l3-2c0.2-0.1,0.4-0.1,0.6,0l3,2c0.2,0.1,0.3,0.5,0.1,0.7C217.3,104.4,217.2,104.5,217,104.5L217,104.5z"/>
				<path class="st1" d="M233,104.5c-0.1,0-0.2,0-0.3-0.1l-2.7-1.8l-2.7,1.8c-0.2,0.2-0.5,0.1-0.7-0.1s-0.1-0.5,0.1-0.7
					c0,0,0,0,0.1-0.1l3-2c0.2-0.1,0.4-0.1,0.6,0l3,2c0.2,0.1,0.3,0.5,0.1,0.7C233.3,104.4,233.2,104.5,233,104.5L233,104.5z"/>
				<path class="st1" d="M239,104.5c-0.1,0-0.2,0-0.3-0.1l-2.7-1.8l-2.7,1.8c-0.2,0.2-0.5,0.1-0.7-0.1s-0.1-0.5,0.1-0.7
					c0,0,0,0,0.1-0.1l3-2c0.2-0.1,0.4-0.1,0.6,0l3,2c0.2,0.1,0.3,0.5,0.1,0.7C239.3,104.4,239.2,104.5,239,104.5L239,104.5z"/>
				<path class="st1" d="M245,104.5c-0.1,0-0.2,0-0.3-0.1l-2.7-1.8l-2.7,1.8c-0.2,0.2-0.5,0.1-0.7-0.1s-0.1-0.5,0.1-0.7
					c0,0,0,0,0.1-0.1l3-2c0.2-0.1,0.4-0.1,0.6,0l3,2c0.2,0.1,0.3,0.5,0.1,0.7C245.3,104.4,245.2,104.5,245,104.5L245,104.5z"/>
				<path class="st1" d="M217,104.5c-0.3,0-0.5-0.2-0.5-0.5c0-0.1,0.1-0.3,0.1-0.3l2-2c0.2-0.2,0.5-0.2,0.7,0c0.2,0.2,0.2,0.5,0,0.7
					l-2,2C217.3,104.5,217.1,104.5,217,104.5z"/>
				<path class="st1" d="M227,104.5c-0.1,0-0.3-0.1-0.4-0.2l-2-2c-0.2-0.2-0.2-0.5,0-0.7c0.2-0.2,0.5-0.2,0.7,0l2,2
					c0.2,0.2,0.2,0.5,0,0.7C227.3,104.4,227.1,104.5,227,104.5L227,104.5z"/>
				<path class="st1" d="M205,133.5c-0.1,0-0.3-0.1-0.4-0.1l-4-4c-0.2-0.2-0.2-0.5,0-0.7s0.5-0.2,0.7,0l4,4c0.2,0.2,0.2,0.5,0,0.7
					C205.3,133.4,205.1,133.5,205,133.5L205,133.5z"/>
				<path class="st1" d="M211,132.5c-0.1,0-0.2,0-0.3-0.1l-4-3c-0.2-0.2-0.3-0.5-0.1-0.7c0.2-0.2,0.5-0.3,0.7-0.1l4,3
					c0.2,0.2,0.3,0.5,0.1,0.7C211.3,132.4,211.2,132.5,211,132.5L211,132.5z"/>
				<path class="st1" d="M219,131.5h-0.2l-6-2c-0.3-0.1-0.4-0.4-0.3-0.6c0.1-0.3,0.4-0.4,0.6-0.3l6,2c0.3,0,0.5,0.3,0.4,0.6
					S219.3,131.6,219,131.5L219,131.5z"/>
				<path class="st1" d="M206.5,133.5c-0.3,0-0.5-0.2-0.5-0.5v-4c0-0.3,0.2-0.5,0.5-0.5s0.5,0.2,0.5,0.5v4
					C207,133.3,206.8,133.5,206.5,133.5z"/>
				<path class="st1" d="M212.5,132.5c-0.3,0-0.5-0.2-0.5-0.5v-3c0-0.3,0.2-0.5,0.5-0.5s0.5,0.2,0.5,0.5v3
					C213,132.3,212.8,132.5,212.5,132.5z"/>
				<path class="st1" d="M239,133.5c-0.3,0-0.5-0.2-0.5-0.5c0-0.1,0.1-0.3,0.1-0.3l4-4c0.2-0.2,0.5-0.2,0.7,0s0.2,0.5,0,0.7l-4,4
					C239.3,133.5,239.1,133.5,239,133.5z"/>
				<path class="st1" d="M233,132.5c-0.3,0-0.5-0.2-0.5-0.5c0-0.2,0.1-0.3,0.2-0.4l4-3c0.2-0.2,0.5-0.1,0.7,0.1
					c0.2,0.2,0.1,0.5-0.1,0.7l-4,3C233.2,132.5,233.1,132.5,233,132.5z"/>
				<path class="st1" d="M225,131.5c-0.3,0-0.5-0.1-0.6-0.4s0.1-0.5,0.4-0.6l6-2c0.3-0.1,0.5,0.1,0.6,0.3c0.1,0.3-0.1,0.5-0.3,0.6
					l-6,2L225,131.5z"/>
				<path class="st1" d="M237.5,133.5c-0.3,0-0.5-0.2-0.5-0.5v-4c0-0.3,0.2-0.5,0.5-0.5s0.5,0.2,0.5,0.5v4
					C238,133.3,237.8,133.5,237.5,133.5z"/>
				<path class="st1" d="M231.5,132.5c-0.3,0-0.5-0.2-0.5-0.5v-3c0-0.3,0.2-0.5,0.5-0.5s0.5,0.2,0.5,0.5v3
					C232,132.3,231.8,132.5,231.5,132.5z"/>
				<path class="st1" d="M149,130c-0.6,0-1-0.4-1-1c0-0.4,0.3-0.8,0.7-0.9c26.4-9.8,34.4-23.4,34.5-23.6c0.3-0.5,0.9-0.6,1.4-0.4
					c0.5,0.3,0.6,0.9,0.4,1.4c-0.3,0.6-8.5,14.4-35.5,24.4C149.2,130,149.1,130,149,130z"/>
				<path class="st1" d="M295,130c-0.1,0-0.2,0-0.4-0.1c-27-10-35.2-23.9-35.5-24.4c-0.3-0.5-0.1-1.1,0.4-1.4s1.1-0.1,1.4,0.4
					c0.1,0.1,8.2,13.8,34.5,23.6c0.5,0.2,0.8,0.8,0.6,1.3C295.8,129.7,295.4,130,295,130z"/>
				<path class="st1" d="M177.5,129.5c-0.3,0-0.5-0.2-0.5-0.5v-17c0-0.3,0.2-0.5,0.5-0.5s0.5,0.2,0.5,0.5v17
					C178,129.3,177.8,129.5,177.5,129.5z"/>
				<path class="st1" d="M172.5,129.5c-0.3,0-0.5-0.2-0.5-0.5v-13c0-0.3,0.2-0.5,0.5-0.5s0.5,0.2,0.5,0.5v13
					C173,129.3,172.8,129.5,172.5,129.5z"/>
				<path class="st1" d="M167.5,129.5c-0.3,0-0.5-0.2-0.5-0.5v-9c0-0.3,0.2-0.5,0.5-0.5s0.5,0.2,0.5,0.5v9
					C168,129.3,167.8,129.5,167.5,129.5z"/>
				<path class="st1" d="M162.5,129.5c-0.3,0-0.5-0.2-0.5-0.5v-6c0-0.3,0.2-0.5,0.5-0.5s0.5,0.2,0.5,0.5v6
					C163,129.3,162.8,129.5,162.5,129.5z"/>
				<path class="st1" d="M157.5,129.5c-0.3,0-0.5-0.2-0.5-0.5v-4c0-0.3,0.2-0.5,0.5-0.5s0.5,0.2,0.5,0.5v4
					C158,129.3,157.8,129.5,157.5,129.5z"/>
				<path class="st1" d="M266.5,129.5c-0.3,0-0.5-0.2-0.5-0.5v-17c0-0.3,0.2-0.5,0.5-0.5s0.5,0.2,0.5,0.5v17
					C267,129.3,266.8,129.5,266.5,129.5z"/>
				<path class="st1" d="M271.5,129.5c-0.3,0-0.5-0.2-0.5-0.5v-13c0-0.3,0.2-0.5,0.5-0.5s0.5,0.2,0.5,0.5v13
					C272,129.3,271.8,129.5,271.5,129.5z"/>
				<path class="st1" d="M276.5,129.5c-0.3,0-0.5-0.2-0.5-0.5v-9c0-0.3,0.2-0.5,0.5-0.5s0.5,0.2,0.5,0.5v9
					C277,129.3,276.8,129.5,276.5,129.5z"/>
				<path class="st1" d="M281.5,129.5c-0.3,0-0.5-0.2-0.5-0.5v-6c0-0.3,0.2-0.5,0.5-0.5s0.5,0.2,0.5,0.5v6
					C282,129.3,281.8,129.5,281.5,129.5z"/>
				<path class="st1" d="M286.5,129.5c-0.3,0-0.5-0.2-0.5-0.5v-3c0-0.3,0.2-0.5,0.5-0.5s0.5,0.2,0.5,0.5v3
					C287,129.3,286.8,129.5,286.5,129.5z"/>
				<path class="st1" d="M194,94c-0.5,0-0.9-0.3-1-0.8l-2-8.8l-2,8.8c-0.1,0.5-0.7,0.9-1.2,0.8s-0.9-0.7-0.8-1.2l3-13
					c0.1-0.5,0.7-0.9,1.2-0.8c0.4,0.1,0.7,0.4,0.8,0.8l3,13c0.1,0.5-0.2,1.1-0.7,1.2c0,0,0,0,0,0L194,94z"/>
				<path class="st1" d="M198,130c-0.6,0-1-0.4-1-1V93.1l-1-4l-1,4V96c0,0.6-0.4,1-1,1h-6c-0.6,0-1-0.4-1-1v-2.9l-1-4l-1,4V129
					c0,0.6-0.4,1-1,1s-1-0.4-1-1V93c0-0.1,0-0.2,0-0.2l2-8c0.1-0.5,0.7-0.9,1.2-0.7c0.4,0.1,0.6,0.4,0.7,0.7l2,8c0,0.1,0,0.2,0,0.2
					v2h4v-2c0-0.1,0-0.2,0-0.2l2-8c0.1-0.5,0.7-0.9,1.2-0.7c0.4,0.1,0.6,0.4,0.7,0.7l2,8c0,0.1,0,0.2,0,0.2v36
					C198.9,129.5,198.5,129.9,198,130z"/>
				<path class="st1" d="M199,99h-16c-0.3,0-0.5-0.2-0.5-0.5s0.2-0.5,0.5-0.5h16c0.3,0,0.5,0.2,0.5,0.5S199.3,99,199,99z"/>
				<path class="st1" d="M199,108h-16c-0.3,0-0.5-0.2-0.5-0.5s0.2-0.5,0.5-0.5h16c0.3,0,0.5,0.2,0.5,0.5S199.3,108,199,108z"/>
				<path class="st1" d="M199,116h-16c-0.3,0-0.5-0.2-0.5-0.5s0.2-0.5,0.5-0.5h16c0.3,0,0.5,0.2,0.5,0.5S199.3,116,199,116z"/>
				<path class="st1" d="M191,94c-0.6,0-1-0.4-1-1v-1c0-0.6,0.4-1,1-1s1,0.4,1,1v1C192,93.6,191.6,94,191,94z"/>
				<path class="st1" d="M189.5,103.5c-0.3,0-0.5-0.2-0.5-0.5v-2c0-0.3,0.2-0.5,0.5-0.5s0.5,0.2,0.5,0.5v2
					C190,103.3,189.8,103.5,189.5,103.5z"/>
				<path class="st1" d="M192.5,103.5c-0.3,0-0.5-0.2-0.5-0.5v-2c0-0.3,0.2-0.5,0.5-0.5s0.5,0.2,0.5,0.5v2
					C193,103.3,192.8,103.5,192.5,103.5z"/>
				<path class="st1" d="M189.5,111.5c-0.3,0-0.5-0.2-0.5-0.5v-1c0-0.3,0.2-0.5,0.5-0.5s0.5,0.2,0.5,0.5v1
					C190,111.3,189.8,111.5,189.5,111.5z"/>
				<path class="st1" d="M189.5,119.5c-0.3,0-0.5-0.2-0.5-0.5v-1c0-0.3,0.2-0.5,0.5-0.5s0.5,0.2,0.5,0.5v1
					C190,119.3,189.8,119.5,189.5,119.5z"/>
				<path class="st1" d="M189.5,124.5c-0.3,0-0.5-0.2-0.5-0.5v-2c0-0.3,0.2-0.5,0.5-0.5s0.5,0.2,0.5,0.5v2
					C190,124.3,189.8,124.5,189.5,124.5z"/>
				<path class="st1" d="M192.5,119.5c-0.3,0-0.5-0.2-0.5-0.5v-1c0-0.3,0.2-0.5,0.5-0.5s0.5,0.2,0.5,0.5v1
					C193,119.3,192.8,119.5,192.5,119.5z"/>
				<path class="st1" d="M192.5,124.5c-0.3,0-0.5-0.2-0.5-0.5v-2c0-0.3,0.2-0.5,0.5-0.5s0.5,0.2,0.5,0.5v2
					C193,124.3,192.8,124.5,192.5,124.5z"/>
				<path class="st1" d="M192.5,111.5c-0.3,0-0.5-0.2-0.5-0.5v-1c0-0.3,0.2-0.5,0.5-0.5s0.5,0.2,0.5,0.5v1
					C193,111.3,192.8,111.5,192.5,111.5z"/>
				<path class="st1" d="M187.5,129.5c-0.3,0-0.5-0.2-0.5-0.5V96c0-0.3,0.2-0.5,0.5-0.5s0.5,0.2,0.5,0.5v33
					C188,129.3,187.8,129.5,187.5,129.5z"/>
				<path class="st1" d="M194.5,129.5c-0.3,0-0.5-0.2-0.5-0.5V96c0-0.3,0.2-0.5,0.5-0.5s0.5,0.2,0.5,0.5v33
					C195,129.3,194.8,129.5,194.5,129.5z"/>
				<path class="st1" d="M191,130c-0.6,0-1-0.4-1-1v-2c0-0.6,0.4-1,1-1s1,0.4,1,1v2C192,129.6,191.6,130,191,130z"/>
				<path class="st1" d="M191,81c-0.6,0-1-0.4-1-1v-2c0-0.6,0.4-1,1-1s1,0.4,1,1v2C192,80.6,191.6,81,191,81z"/>
				<path class="st1" d="M185.5,85.5c-0.3,0-0.5-0.2-0.5-0.5v-3c0-0.3,0.2-0.5,0.5-0.5s0.5,0.2,0.5,0.5v3
					C186,85.3,185.8,85.5,185.5,85.5z"/>
				<path class="st1" d="M196.5,85.5c-0.3,0-0.5-0.2-0.5-0.5v-3c0-0.3,0.2-0.5,0.5-0.5s0.5,0.2,0.5,0.5v3
					C197,85.3,196.8,85.5,196.5,85.5z"/>
				<path class="st1" d="M188,95h-4c-0.3,0-0.5-0.2-0.5-0.5s0.2-0.5,0.5-0.5h4c0.3,0,0.5,0.2,0.5,0.5S188.3,95,188,95z"/>
				<path class="st1" d="M198,95h-4c-0.3,0-0.5-0.2-0.5-0.5s0.2-0.5,0.5-0.5h4c0.3,0,0.5,0.2,0.5,0.5S198.3,95,198,95z"/>
				<path class="st1" d="M256,94c-0.5,0-0.9-0.3-1-0.8l-2-8.8l-2,8.8c-0.1,0.5-0.7,0.9-1.2,0.8s-0.9-0.7-0.8-1.2l3-13
					c0.1-0.5,0.7-0.9,1.2-0.8c0.4,0.1,0.7,0.4,0.8,0.8l3,13c0.1,0.5-0.2,1.1-0.7,1.2c0,0,0,0,0,0L256,94z"/>
				<path class="st1" d="M260,130c-0.6,0-1-0.4-1-1V93.1l-1-4l-1,4V96c0,0.6-0.4,1-1,1h-6c-0.6,0-1-0.4-1-1v-2.9l-1-4l-1,4V129
					c0,0.6-0.4,1-1,1s-1-0.4-1-1V93c0-0.1,0-0.2,0-0.2l2-8c0.1-0.5,0.7-0.9,1.2-0.7c0.4,0.1,0.6,0.4,0.7,0.7l2,8c0,0.1,0,0.2,0,0.2
					v2h4v-2c0-0.1,0-0.2,0-0.2l2-8c0.1-0.5,0.7-0.9,1.2-0.7c0.4,0.1,0.6,0.4,0.7,0.7l2,8c0,0.1,0,0.2,0,0.2v36
					C260.9,129.5,260.5,129.9,260,130z"/>
				<path class="st1" d="M261,99h-16c-0.3,0-0.5-0.2-0.5-0.5s0.2-0.5,0.5-0.5h16c0.3,0,0.5,0.2,0.5,0.5S261.3,99,261,99z"/>
				<path class="st1" d="M261,108h-16c-0.3,0-0.5-0.2-0.5-0.5s0.2-0.5,0.5-0.5h16c0.3,0,0.5,0.2,0.5,0.5S261.3,108,261,108z"/>
				<path class="st1" d="M261,116h-16c-0.3,0-0.5-0.2-0.5-0.5s0.2-0.5,0.5-0.5h16c0.3,0,0.5,0.2,0.5,0.5S261.3,116,261,116z"/>
				<path class="st1" d="M253,94c-0.6,0-1-0.4-1-1v-1c0-0.6,0.4-1,1-1s1,0.4,1,1v1C254,93.6,253.6,94,253,94z"/>
				<path class="st1" d="M251.5,103.5c-0.3,0-0.5-0.2-0.5-0.5v-2c0-0.3,0.2-0.5,0.5-0.5s0.5,0.2,0.5,0.5v2
					C252,103.3,251.8,103.5,251.5,103.5z"/>
				<path class="st1" d="M254.5,103.5c-0.3,0-0.5-0.2-0.5-0.5v-2c0-0.3,0.2-0.5,0.5-0.5s0.5,0.2,0.5,0.5v2
					C255,103.3,254.8,103.5,254.5,103.5z"/>
				<path class="st1" d="M251.5,111.5c-0.3,0-0.5-0.2-0.5-0.5v-1c0-0.3,0.2-0.5,0.5-0.5s0.5,0.2,0.5,0.5v1
					C252,111.3,251.8,111.5,251.5,111.5z"/>
				<path class="st1" d="M251.5,119.5c-0.3,0-0.5-0.2-0.5-0.5v-1c0-0.3,0.2-0.5,0.5-0.5s0.5,0.2,0.5,0.5v1
					C252,119.3,251.8,119.5,251.5,119.5z"/>
				<path class="st1" d="M251.5,124.5c-0.3,0-0.5-0.2-0.5-0.5v-2c0-0.3,0.2-0.5,0.5-0.5s0.5,0.2,0.5,0.5v2
					C252,124.3,251.8,124.5,251.5,124.5z"/>
				<path class="st1" d="M254.5,119.5c-0.3,0-0.5-0.2-0.5-0.5v-1c0-0.3,0.2-0.5,0.5-0.5s0.5,0.2,0.5,0.5v1
					C255,119.3,254.8,119.5,254.5,119.5z"/>
				<path class="st1" d="M254.5,124.5c-0.3,0-0.5-0.2-0.5-0.5v-2c0-0.3,0.2-0.5,0.5-0.5s0.5,0.2,0.5,0.5v2
					C255,124.3,254.8,124.5,254.5,124.5z"/>
				<path class="st1" d="M254.5,111.5c-0.3,0-0.5-0.2-0.5-0.5v-1c0-0.3,0.2-0.5,0.5-0.5s0.5,0.2,0.5,0.5v1
					C255,111.3,254.8,111.5,254.5,111.5z"/>
				<path class="st1" d="M249.5,129.5c-0.3,0-0.5-0.2-0.5-0.5V96c0-0.3,0.2-0.5,0.5-0.5s0.5,0.2,0.5,0.5v33
					C250,129.3,249.8,129.5,249.5,129.5z"/>
				<path class="st1" d="M256.5,129.5c-0.3,0-0.5-0.2-0.5-0.5V96c0-0.3,0.2-0.5,0.5-0.5s0.5,0.2,0.5,0.5v33
					C257,129.3,256.8,129.5,256.5,129.5z"/>
				<path class="st1" d="M253,130c-0.6,0-1-0.4-1-1v-2c0-0.6,0.4-1,1-1s1,0.4,1,1v2C254,129.6,253.6,130,253,130z"/>
				<path class="st1" d="M253,81c-0.6,0-1-0.4-1-1v-2c0-0.6,0.4-1,1-1s1,0.4,1,1v2C254,80.6,253.6,81,253,81z"/>
				<path class="st1" d="M247.5,85.5c-0.3,0-0.5-0.2-0.5-0.5v-3c0-0.3,0.2-0.5,0.5-0.5s0.5,0.2,0.5,0.5v3
					C248,85.3,247.8,85.5,247.5,85.5z"/>
				<path class="st1" d="M258.5,85.5c-0.3,0-0.5-0.2-0.5-0.5v-3c0-0.3,0.2-0.5,0.5-0.5s0.5,0.2,0.5,0.5v3
					C259,85.3,258.8,85.5,258.5,85.5z"/>
				<path class="st1" d="M250,95h-4c-0.3,0-0.5-0.2-0.5-0.5s0.2-0.5,0.5-0.5h4c0.3,0,0.5,0.2,0.5,0.5S250.3,95,250,95z"/>
				<path class="st1" d="M260,95h-4c-0.3,0-0.5-0.2-0.5-0.5s0.2-0.5,0.5-0.5h4c0.3,0,0.5,0.2,0.5,0.5S260.3,95,260,95z"/>
				<path class="st1" d="M222,103c-0.6,0-1-0.4-1-1c0-0.3,0.1-0.5,0.3-0.7c0.4-0.4,1-0.4,1.4,0c0.4,0.4,0.4,1,0,1.4
					C222.5,102.9,222.3,103,222,103z"/>
				<path class="st1" d="M154,140h-5c-0.6,0-1-0.4-1-1v-10c0-0.6,0.4-1,1-1h5c0.6,0,1,0.4,1,1v10C155,139.6,154.6,140,154,140z
					 M150,138h3v-8h-3V138z"/>
				<path class="st1" d="M295,140h-5c-0.6,0-1-0.4-1-1v-10c0-0.6,0.4-1,1-1h5c0.6,0,1,0.4,1,1v10C296,139.6,295.6,140,295,140z
					 M291,138h3v-8h-3V138z"/>
			</g>
		</g>
	</g>
</g>
<g id="Building_3_London">
	<g>
		<defs>
			<path id="SVGID_8_" d="M347.5,92.5c0-0.3-0.2-0.5-0.5-0.5c0,0,0,0,0,0h-0.1c-0.2-0.9-0.7-1.7-1.3-2.2c-0.2-0.2-0.5-0.4-0.7-0.6
				s-1.2-0.9-1.2-1.2c0-0.4-0.2-0.7-0.6-0.9c0,0,0-0.1,0-0.1v-5c0-0.3-0.2-0.5-0.5-0.5S342,81.7,342,82v3c-0.6,0-1,0.4-1,1v1
				c0,0,0,0.1,0,0.1c-0.4,0.2-0.6,0.5-0.6,0.9c0,0.3-0.9,0.9-1.2,1.2s-0.5,0.4-0.7,0.6c-0.7,0.6-1.1,1.4-1.3,2.2H337
				c-0.3,0-0.5,0.2-0.5,0.5s0.2,0.5,0.5,0.5v29h-4.4c-1.5-2.2-3.9-3.4-6.6-3.4h-0.1c-0.1-19.2,2.5-35.9,6-47.6H331
				c-0.3,0-0.5-0.2-0.5-0.5s0.2-0.5,0.5-0.5h1.2c0.1-0.3,0.2-0.7,0.3-1H332c-0.3,0-0.5-0.2-0.5-0.5s0.2-0.5,0.5-0.5h0.8
				c2-6,4.3-10.4,6.5-12.9c2.5-2.8,4.8-2.8,7.4,0c2.2,2.5,4.5,6.9,6.5,12.9h0.8c0.3,0,0.5,0.2,0.5,0.5S354.3,69,354,69h-0.5
				c0.1,0.3,0.2,0.7,0.3,1h1.2c0.3,0,0.5,0.2,0.5,0.5S355.3,71,355,71h-0.9c2.7,9.5,4.5,19.2,5.2,29H347v-7
				C347.3,93,347.5,92.8,347.5,92.5C347.5,92.5,347.5,92.5,347.5,92.5z"/>
		</defs>
		<clipPath id="SVGID_9_">
			<use xlink:href="#SVGID_8_"  style="overflow:visible;"/>
		</clipPath>
		<g class="st5">
			<g id="Building_3">
				
					<linearGradient id="SVGID_10_" gradientUnits="userSpaceOnUse" x1="-2.33" y1="3" x2="438.08" y2="3" gradientTransform="matrix(1 0 0 -1 0 142)">
					<stop  offset="0" style="stop-color:#EA4D89"/>
					<stop  offset="1" style="stop-color:#FF1F1F"/>
				</linearGradient>
				<path class="st6" d="M373,141h-60c-1.1,0-2-0.9-2-2s0.9-2,2-2h60c1.1,0,2,0.9,2,2S374.1,141,373,141z"/>
				<path class="st1" d="M354.1,71h0.9c0.3,0,0.5-0.2,0.5-0.5S355.3,70,355,70h-1.2l-0.3-1h0.5c0.3,0,0.5-0.2,0.5-0.5
					S354.3,68,354,68h-0.8c-2-6-4.3-10.4-6.5-12.9c-2.5-2.8-4.8-2.8-7.4,0c-2.2,2.5-4.5,6.9-6.5,12.9H332c-0.3,0-0.5,0.2-0.5,0.5
					s0.2,0.5,0.5,0.5h0.5l-0.3,1H331c-0.3,0-0.5,0.2-0.5,0.5s0.2,0.5,0.5,0.5h0.9c-4.8,15.9-7.8,40.9-4.8,69.1
					c0.1,0.5,0.5,0.9,1,0.9h29.9c0.5,0,0.9-0.4,1-0.9C362,111.9,358.9,86.9,354.1,71z M331.3,81.4l26.3,41.9
					c0.1,0.1,0.2,0.2,0.4,0.2h0.1c-0.1,2.6-0.2,5.3-0.4,8l-27.2-43.8c-0.1-0.1-0.2-0.2-0.3-0.2C330.5,85.4,330.9,83.3,331.3,81.4z
					 M339.5,69h3.5v1h-3.5C339.5,69.7,339.5,69.3,339.5,69z M344.2,55.5c1.8,3.9,2.9,8.2,3.2,12.5H344V55.4L344.2,55.5z M347.5,70
					H344v-1h3.5C347.5,69.3,347.5,69.7,347.5,70z M343,68h-3.4c0.3-4.5,1.5-8.8,3.4-12.9V68z M342.5,71c0,0.1,0,0.2,0.1,0.3l14,22
					c0,0,0.1,0.1,0.1,0.1c0.4,2.9,0.7,5.9,0.9,9.1l-20-31.5H342.5z M356.4,91.1L343.6,71h8.4C354,77.6,355.5,84.3,356.4,91.1z
					 M351.7,70h-3.2c0-0.3,0-0.7,0-1h2.9C351.5,69.3,351.6,69.7,351.7,70z M351,68h-2.6c-0.2-3.5-1-6.9-2.2-10.2
					C348.2,61,349.8,64.4,351,68z M340.8,56.5c0.3-0.3,0.5-0.5,0.8-0.8c-1.7,3.9-2.8,8.1-3.1,12.3H335
					C336.9,62.4,339,58.5,340.8,56.5z M334.6,69h3.9c0,0.3,0,0.7,0,1h-4.2C334.4,69.7,334.5,69.3,334.6,69z M336.5,71
					c0,0.1,0,0.2,0.1,0.3l21,33c0,0.1,0.1,0.1,0.2,0.2c0.4,5.6,0.5,11.5,0.3,17.8L331.6,80c0.7-3.3,1.5-6.3,2.4-9H336.5z M339,135
					c-0.6,0-1,0.4-1,1v3h-2v-3c0-0.6-0.4-1-1-1s-1,0.4-1,1v3h-2v-3c0-0.6-0.4-1-1-1s-1,0.4-1,1v3h-1c-0.9-8.2-1.2-16.5-1.1-24.7
					l15.5,24.7H340v-3C340,135.4,339.6,135,339,135z M345,135c-0.6,0-1,0.4-1,1v2.1l-16.1-25.6c0-2.2,0.1-4.3,0.2-6.3l21.3,32.9H346
					v-3C346,135.4,345.6,135,345,135z M356,139v-3c0-0.6-0.4-1-1-1s-1,0.4-1,1v3h-2v-3c0-0.6-0.4-1-1-1s-1,0.4-1,1v2.1l-21.6-33.3
					c0-0.1-0.1-0.1-0.2-0.2c0.4-5.7,1-10.9,1.7-15.7l27.6,44.4c-0.1,1.9-0.3,3.8-0.5,5.8H356z"/>
			</g>
		</g>
	</g>
</g>
<g id="Building_1_London">
	<g>
		<defs>
			<path id="SVGID_11_" d="M432,137h-15v-14c0.3,0,0.5-0.2,0.5-0.5s-0.2-0.5-0.5-0.5v-4c0-0.6-0.4-1-1-1h-9c-0.6,0-1,0.4-1,1v1h-6
				c-0.6,0-1,0.4-1,1v2h-7v-21c0-0.6-0.4-1-1-1h-4v-7c0.3,0,0.5-0.2,0.5-0.5S387.3,92,387,92h-0.1c-0.2-0.9-0.7-1.7-1.3-2.2
				c-0.2-0.2-0.5-0.4-0.7-0.6s-1.2-0.9-1.2-1.2c0-0.4-0.2-0.7-0.6-0.9c0,0,0-0.1,0-0.1v-1c0-0.6-0.4-1-1-1v-3c0-0.3-0.2-0.5-0.5-0.5
				S381,81.7,381,82v5c0,0,0,0.1,0,0.1c-0.4,0.2-0.6,0.5-0.6,0.9c0,0.3-0.9,0.9-1.2,1.2s-0.5,0.4-0.7,0.6c-0.7,0.6-1.1,1.4-1.3,2.2
				H377c-0.3,0-0.5,0.2-0.5,0.5s0.2,0.5,0.5,0.5v7h-30v-7c0.3,0,0.5-0.2,0.5-0.5S347.3,92,347,92h-0.1c-0.2-0.9-0.7-1.7-1.3-2.2
				c-0.2-0.2-0.5-0.4-0.7-0.6s-1.2-0.9-1.2-1.2c0-0.4-0.2-0.7-0.6-0.9c0,0,0-0.1,0-0.1v-5c0-0.3-0.2-0.5-0.5-0.5S342,81.7,342,82v3
				c-0.6,0-1,0.4-1,1v1c0,0,0,0.1,0,0.1c-0.4,0.2-0.6,0.5-0.6,0.9c0,0.3-0.9,0.9-1.2,1.2s-0.5,0.4-0.7,0.6c-0.7,0.6-1.1,1.4-1.3,2.2
				H337c-0.3,0-0.5,0.2-0.5,0.5s0.2,0.5,0.5,0.5v29h-4.4c0.8,1.2,1.3,2.7,1.3,4.2c0,3.9-3,7.2-6.8,7.5v4.8c0,0.6-0.4,1-1,1
				s-1-0.4-1-1v-4.8c-4.1-0.4-7.2-4.1-6.8-8.2c0.3-3,2.3-5.5,5.2-6.5H322v-1c0-0.6-0.4-1-1-1h-9c-0.6,0-1,0.4-1,1v4
				c-0.3,0-0.5,0.2-0.5,0.5s0.2,0.5,0.5,0.5v14h-9c-1.1,0-2,0.9-2,2s0.9,2,2,2h130c1.1,0,2-0.9,2-2S433.1,137,432,137z M352,133.7
				v4.8c0,0.6-0.4,1-1,1s-1-0.4-1-1v-4.8c-3.9-0.4-6.9-3.6-6.8-7.5c0-4.3,3.5-7.8,7.8-7.8c4.3,0,7.8,3.5,7.8,7.8
				C358.9,130.1,355.9,133.3,352,133.7z"/>
		</defs>
		<clipPath id="SVGID_12_">
			<use xlink:href="#SVGID_11_"  style="overflow:visible;"/>
		</clipPath>
		<g class="st7">
			<g id="Building_7">
				<path class="st1" d="M432,141H302c-1.1,0-2-0.9-2-2s0.9-2,2-2h130c1.1,0,2,0.9,2,2S433.1,141,432,141z"/>
				
					<linearGradient id="SVGID_13_" gradientUnits="userSpaceOnUse" x1="-2.33" y1="16" x2="438.08" y2="16" gradientTransform="matrix(1 0 0 -1 0 142)">
					<stop  offset="0" style="stop-color:#EA4D89"/>
					<stop  offset="1" style="stop-color:#FF1F1F"/>
				</linearGradient>
				<path class="st8" d="M316.5,124.5c-0.3,0-0.5,0.2-0.5,0.5v2c0,0.3,0.2,0.5,0.5,0.5s0.5-0.2,0.5-0.5v-2
					C317,124.7,316.8,124.5,316.5,124.5z"/>
				
					<linearGradient id="SVGID_14_" gradientUnits="userSpaceOnUse" x1="-2.33" y1="16" x2="438.08" y2="16" gradientTransform="matrix(1 0 0 -1 0 142)">
					<stop  offset="0" style="stop-color:#EA4D89"/>
					<stop  offset="1" style="stop-color:#FF1F1F"/>
				</linearGradient>
				<path class="st9" d="M411.5,124.5c-0.3,0-0.5,0.2-0.5,0.5v2c0,0.3,0.2,0.5,0.5,0.5s0.5-0.2,0.5-0.5v-2
					C412,124.7,411.8,124.5,411.5,124.5z"/>
				<path class="st1" d="M417,122v-4c0-0.6-0.4-1-1-1h-9c-0.6,0-1,0.4-1,1v1h-6c-0.6,0-1,0.4-1,1v2h-70v-2c0-0.6-0.4-1-1-1h-6v-1
					c0-0.6-0.4-1-1-1h-9c-0.6,0-1,0.4-1,1v4c-0.3,0-0.5,0.2-0.5,0.5s0.2,0.5,0.5,0.5v16c0,0.6,0.4,1,1,1s1-0.4,1-1v-16h7v16
					c0,0.6,0.4,1,1,1s1-0.4,1-1v-8h3v1c0,0.3,0.2,0.5,0.5,0.5s0.5-0.2,0.5-0.5v-1h3v1c0,0.3,0.2,0.5,0.5,0.5s0.5-0.2,0.5-0.5v-1h3v1
					c0,0.3,0.2,0.5,0.5,0.5s0.5-0.2,0.5-0.5v-1h3v1c0,0.3,0.2,0.5,0.5,0.5s0.5-0.2,0.5-0.5v-1h3v1c0,0.3,0.2,0.5,0.5,0.5
					s0.5-0.2,0.5-0.5v-1h3v1c0,0.3,0.2,0.5,0.5,0.5s0.5-0.2,0.5-0.5v-1h3v1c0,0.3,0.2,0.5,0.5,0.5s0.5-0.2,0.5-0.5v-1h3v1
					c0,0.3,0.2,0.5,0.5,0.5s0.5-0.2,0.5-0.5v-3h2v1c0,0.3,0.2,0.5,0.5,0.5s0.5-0.2,0.5-0.5v-3h5v1c0,0.3,0.2,0.5,0.5,0.5
					s0.5-0.2,0.5-0.5v-1h3v1c0,0.3,0.2,0.5,0.5,0.5s0.5-0.2,0.5-0.5v-1h4v3c0,0.3,0.2,0.5,0.5,0.5s0.5-0.2,0.5-0.5v-1h2v3
					c0,0.3,0.2,0.5,0.5,0.5s0.5-0.2,0.5-0.5v-1h3v1c0,0.3,0.2,0.5,0.5,0.5s0.5-0.2,0.5-0.5v-1h3v1c0,0.3,0.2,0.5,0.5,0.5
					s0.5-0.2,0.5-0.5v-1h3v1c0,0.3,0.2,0.5,0.5,0.5s0.5-0.2,0.5-0.5v-1h3v1c0,0.3,0.2,0.5,0.5,0.5s0.5-0.2,0.5-0.5v-1h3v1
					c0,0.3,0.2,0.5,0.5,0.5s0.5-0.2,0.5-0.5v-1h3v1c0,0.3,0.2,0.5,0.5,0.5s0.5-0.2,0.5-0.5v-1h3v1c0,0.3,0.2,0.5,0.5,0.5
					s0.5-0.2,0.5-0.5v-1h3v8c0,0.6,0.4,1,1,1s1-0.4,1-1v-16h7v16c0,0.6,0.4,1,1,1s1-0.4,1-1v-16c0.3,0,0.5-0.2,0.5-0.5
					S417.3,122,417,122z M313,122v-3h1v1c0,0.3,0.2,0.5,0.5,0.5s0.5-0.2,0.5-0.5v-1h1v1c0,0.3,0.2,0.5,0.5,0.5s0.5-0.2,0.5-0.5v-1h1
					v1c0,0.3,0.2,0.5,0.5,0.5s0.5-0.2,0.5-0.5v-1h1v3H313z M406,130h-31v-1.5c0-0.3-0.2-0.5-0.5-0.5H372v-1.5c0-0.3-0.2-0.5-0.5-0.5
					h-15c-0.3,0-0.5,0.2-0.5,0.5v1.5h-2.5c-0.3,0-0.5,0.2-0.5,0.5v1.5h-31v-7c0.3,0,0.5-0.2,0.5-0.5s-0.2-0.5-0.5-0.5v-1h5v2
					c0,0.6,0.4,1,1,1h2v1c0,0.3,0.2,0.5,0.5,0.5s0.5-0.2,0.5-0.5v-1h3v1c0,0.3,0.2,0.5,0.5,0.5s0.5-0.2,0.5-0.5v-1h3v1
					c0,0.3,0.2,0.5,0.5,0.5s0.5-0.2,0.5-0.5v-1h3v1c0,0.3,0.2,0.5,0.5,0.5s0.5-0.2,0.5-0.5v-1h3v1c0,0.3,0.2,0.5,0.5,0.5
					s0.5-0.2,0.5-0.5v-1h3v1c0,0.3,0.2,0.5,0.5,0.5s0.5-0.2,0.5-0.5v-1h3v1c0,0.3,0.2,0.5,0.5,0.5s0.5-0.2,0.5-0.5v-1h3v1
					c0,0.3,0.2,0.5,0.5,0.5s0.5-0.2,0.5-0.5v-1h3v1c0,0.3,0.2,0.5,0.5,0.5s0.5-0.2,0.5-0.5v-1h3v1c0,0.3,0.2,0.5,0.5,0.5
					s0.5-0.2,0.5-0.5v-1h3v1c0,0.3,0.2,0.5,0.5,0.5s0.5-0.2,0.5-0.5v-1h3v1c0,0.3,0.2,0.5,0.5,0.5s0.5-0.2,0.5-0.5v-1h3v1
					c0,0.3,0.2,0.5,0.5,0.5s0.5-0.2,0.5-0.5v-1h3v1c0,0.3,0.2,0.5,0.5,0.5s0.5-0.2,0.5-0.5v-1h3v1c0,0.3,0.2,0.5,0.5,0.5
					s0.5-0.2,0.5-0.5v-1h3v1c0,0.3,0.2,0.5,0.5,0.5s0.5-0.2,0.5-0.5v-1h3v1c0,0.3,0.2,0.5,0.5,0.5s0.5-0.2,0.5-0.5v-1h3v1
					c0,0.3,0.2,0.5,0.5,0.5s0.5-0.2,0.5-0.5v-1h1c0.6,0,1-0.4,1-1v-2h5v1c-0.3,0-0.5,0.2-0.5,0.5s0.2,0.5,0.5,0.5V130z M408,122v-3
					h1v1c0,0.3,0.2,0.5,0.5,0.5s0.5-0.2,0.5-0.5v-1h1v1c0,0.3,0.2,0.5,0.5,0.5s0.5-0.2,0.5-0.5v-1h1v1c0,0.3,0.2,0.5,0.5,0.5
					s0.5-0.2,0.5-0.5v-1h1v3H408z"/>
				<path class="st1" d="M364,129c-2.4,0-4.5,2.1-4.7,2.3c-0.2,0.2-0.3,0.4-0.3,0.7v7c0,0.6,0.4,1,1,1s1-0.4,1-1v-6.6
					c1.3-1.7,3.8-1.9,5.4-0.6c0.2,0.2,0.4,0.4,0.6,0.6v6.6c0,0.6,0.4,1,1,1s1-0.4,1-1v-7c0-0.3-0.1-0.5-0.3-0.7
					C368.5,131.1,366.4,129,364,129z"/>
				
					<linearGradient id="SVGID_15_" gradientUnits="userSpaceOnUse" x1="-2.33" y1="29" x2="438.08" y2="29" gradientTransform="matrix(1 0 0 -1 0 142)">
					<stop  offset="0" style="stop-color:#EA4D89"/>
					<stop  offset="1" style="stop-color:#FF1F1F"/>
				</linearGradient>
				<path class="st10" d="M350,111c-0.6,0-1,0.4-1,1v2c0,0.6,0.4,1,1,1s1-0.4,1-1v-2C351,111.4,350.6,111,350,111z"/>
				
					<linearGradient id="SVGID_16_" gradientUnits="userSpaceOnUse" x1="-2.33" y1="23" x2="438.08" y2="23" gradientTransform="matrix(1 0 0 -1 0 142)">
					<stop  offset="0" style="stop-color:#EA4D89"/>
					<stop  offset="1" style="stop-color:#FF1F1F"/>
				</linearGradient>
				<path class="st11" d="M350,117c-0.6,0-1,0.4-1,1v2c0,0.6,0.4,1,1,1s1-0.4,1-1v-2C351,117.4,350.6,117,350,117z"/>
				
					<linearGradient id="SVGID_17_" gradientUnits="userSpaceOnUse" x1="-2.33" y1="23" x2="438.08" y2="23" gradientTransform="matrix(1 0 0 -1 0 142)">
					<stop  offset="0" style="stop-color:#EA4D89"/>
					<stop  offset="1" style="stop-color:#FF1F1F"/>
				</linearGradient>
				<path class="st12" d="M358,117c-0.6,0-1,0.4-1,1v2c0,0.6,0.4,1,1,1s1-0.4,1-1v-2C359,117.4,358.6,117,358,117z"/>
				
					<linearGradient id="SVGID_18_" gradientUnits="userSpaceOnUse" x1="-2.33" y1="23" x2="438.08" y2="23" gradientTransform="matrix(1 0 0 -1 0 142)">
					<stop  offset="0" style="stop-color:#EA4D89"/>
					<stop  offset="1" style="stop-color:#FF1F1F"/>
				</linearGradient>
				<path class="st13" d="M366,117c-0.6,0-1,0.4-1,1v2c0,0.6,0.4,1,1,1s1-0.4,1-1v-2C367,117.4,366.6,117,366,117z"/>
				
					<linearGradient id="SVGID_19_" gradientUnits="userSpaceOnUse" x1="-2.33" y1="23" x2="438.08" y2="23" gradientTransform="matrix(1 0 0 -1 0 142)">
					<stop  offset="0" style="stop-color:#EA4D89"/>
					<stop  offset="1" style="stop-color:#FF1F1F"/>
				</linearGradient>
				<path class="st14" d="M374,117c-0.6,0-1,0.4-1,1v2c0,0.6,0.4,1,1,1s1-0.4,1-1v-2C375,117.4,374.6,117,374,117z"/>
				
					<linearGradient id="SVGID_20_" gradientUnits="userSpaceOnUse" x1="-2.33" y1="23" x2="438.08" y2="23" gradientTransform="matrix(1 0 0 -1 0 142)">
					<stop  offset="0" style="stop-color:#EA4D89"/>
					<stop  offset="1" style="stop-color:#FF1F1F"/>
				</linearGradient>
				<path class="st15" d="M382,117c-0.6,0-1,0.4-1,1v2c0,0.6,0.4,1,1,1s1-0.4,1-1v-2C383,117.4,382.6,117,382,117z"/>
				
					<linearGradient id="SVGID_21_" gradientUnits="userSpaceOnUse" x1="-2.33" y1="29" x2="438.08" y2="29" gradientTransform="matrix(1 0 0 -1 0 142)">
					<stop  offset="0" style="stop-color:#EA4D89"/>
					<stop  offset="1" style="stop-color:#FF1F1F"/>
				</linearGradient>
				<path class="st16" d="M358,111c-0.6,0-1,0.4-1,1v2c0,0.6,0.4,1,1,1s1-0.4,1-1v-2C359,111.4,358.6,111,358,111z"/>
				
					<linearGradient id="SVGID_22_" gradientUnits="userSpaceOnUse" x1="-2.33" y1="29" x2="438.08" y2="29" gradientTransform="matrix(1 0 0 -1 0 142)">
					<stop  offset="0" style="stop-color:#EA4D89"/>
					<stop  offset="1" style="stop-color:#FF1F1F"/>
				</linearGradient>
				<path class="st17" d="M366,111c-0.6,0-1,0.4-1,1v2c0,0.6,0.4,1,1,1s1-0.4,1-1v-2C367,111.4,366.6,111,366,111z"/>
				
					<linearGradient id="SVGID_23_" gradientUnits="userSpaceOnUse" x1="-2.33" y1="35.5" x2="438.08" y2="35.5" gradientTransform="matrix(1 0 0 -1 0 142)">
					<stop  offset="0" style="stop-color:#EA4D89"/>
					<stop  offset="1" style="stop-color:#FF1F1F"/>
				</linearGradient>
				<path class="st18" d="M366,105c-0.6,0-1,0.4-1,1v1c0,0.6,0.4,1,1,1s1-0.4,1-1v-1C367,105.4,366.6,105,366,105z"/>
				
					<linearGradient id="SVGID_24_" gradientUnits="userSpaceOnUse" x1="-2.33" y1="35.5" x2="438.08" y2="35.5" gradientTransform="matrix(1 0 0 -1 0 142)">
					<stop  offset="0" style="stop-color:#EA4D89"/>
					<stop  offset="1" style="stop-color:#FF1F1F"/>
				</linearGradient>
				<path class="st19" d="M374,105c-0.6,0-1,0.4-1,1v1c0,0.6,0.4,1,1,1s1-0.4,1-1v-1C375,105.4,374.6,105,374,105z"/>
				
					<linearGradient id="SVGID_25_" gradientUnits="userSpaceOnUse" x1="-2.33" y1="35.5" x2="438.08" y2="35.5" gradientTransform="matrix(1 0 0 -1 0 142)">
					<stop  offset="0" style="stop-color:#EA4D89"/>
					<stop  offset="1" style="stop-color:#FF1F1F"/>
				</linearGradient>
				<path class="st20" d="M382,105c-0.6,0-1,0.4-1,1v1c0,0.6,0.4,1,1,1s1-0.4,1-1v-1C383,105.4,382.6,105,382,105z"/>
				
					<linearGradient id="SVGID_26_" gradientUnits="userSpaceOnUse" x1="-2.33" y1="29" x2="438.08" y2="29" gradientTransform="matrix(1 0 0 -1 0 142)">
					<stop  offset="0" style="stop-color:#EA4D89"/>
					<stop  offset="1" style="stop-color:#FF1F1F"/>
				</linearGradient>
				<path class="st21" d="M374,111c-0.6,0-1,0.4-1,1v2c0,0.6,0.4,1,1,1s1-0.4,1-1v-2C375,111.4,374.6,111,374,111z"/>
				
					<linearGradient id="SVGID_27_" gradientUnits="userSpaceOnUse" x1="-2.33" y1="29" x2="438.08" y2="29" gradientTransform="matrix(1 0 0 -1 0 142)">
					<stop  offset="0" style="stop-color:#EA4D89"/>
					<stop  offset="1" style="stop-color:#FF1F1F"/>
				</linearGradient>
				<path class="st22" d="M382,111c-0.6,0-1,0.4-1,1v2c0,0.6,0.4,1,1,1s1-0.4,1-1v-2C383,111.4,382.6,111,382,111z"/>
				
					<linearGradient id="SVGID_28_" gradientUnits="userSpaceOnUse" x1="-2.33" y1="35.5" x2="438.08" y2="35.5" gradientTransform="matrix(1 0 0 -1 0 142)">
					<stop  offset="0" style="stop-color:#EA4D89"/>
					<stop  offset="1" style="stop-color:#FF1F1F"/>
				</linearGradient>
				<path class="st23" d="M359.5,105.5c-0.3,0-0.5,0.2-0.5,0.5v1c0,0.3,0.2,0.5,0.5,0.5s0.5-0.2,0.5-0.5v-1
					C360,105.7,359.8,105.5,359.5,105.5z"/>
				
					<linearGradient id="SVGID_29_" gradientUnits="userSpaceOnUse" x1="-2.33" y1="35.5" x2="438.08" y2="35.5" gradientTransform="matrix(1 0 0 -1 0 142)">
					<stop  offset="0" style="stop-color:#EA4D89"/>
					<stop  offset="1" style="stop-color:#FF1F1F"/>
				</linearGradient>
				<path class="st24" d="M356.5,105.5c-0.3,0-0.5,0.2-0.5,0.5v1c0,0.3,0.2,0.5,0.5,0.5s0.5-0.2,0.5-0.5v-1
					C357,105.7,356.8,105.5,356.5,105.5z"/>
				
					<linearGradient id="SVGID_30_" gradientUnits="userSpaceOnUse" x1="-2.33" y1="35.5" x2="438.08" y2="35.5" gradientTransform="matrix(1 0 0 -1 0 142)">
					<stop  offset="0" style="stop-color:#EA4D89"/>
					<stop  offset="1" style="stop-color:#FF1F1F"/>
				</linearGradient>
				<path class="st25" d="M351.5,105.5c-0.3,0-0.5,0.2-0.5,0.5v1c0,0.3,0.2,0.5,0.5,0.5s0.5-0.2,0.5-0.5v-1
					C352,105.7,351.8,105.5,351.5,105.5z"/>
				
					<linearGradient id="SVGID_31_" gradientUnits="userSpaceOnUse" x1="-2.33" y1="35.5" x2="438.08" y2="35.5" gradientTransform="matrix(1 0 0 -1 0 142)">
					<stop  offset="0" style="stop-color:#EA4D89"/>
					<stop  offset="1" style="stop-color:#FF1F1F"/>
				</linearGradient>
				<path class="st26" d="M348.5,105.5c-0.3,0-0.5,0.2-0.5,0.5v1c0,0.3,0.2,0.5,0.5,0.5s0.5-0.2,0.5-0.5v-1
					C349,105.7,348.8,105.5,348.5,105.5z"/>
				
					<linearGradient id="SVGID_32_" gradientUnits="userSpaceOnUse" x1="-2.33" y1="45.5" x2="438.08" y2="45.5" gradientTransform="matrix(1 0 0 -1 0 142)">
					<stop  offset="0" style="stop-color:#EA4D89"/>
					<stop  offset="1" style="stop-color:#FF1F1F"/>
				</linearGradient>
				<path class="st27" d="M340.5,97.5c0.3,0,0.5-0.2,0.5-0.5v-1c0-0.3-0.2-0.5-0.5-0.5S340,95.7,340,96v1
					C340,97.3,340.2,97.5,340.5,97.5z"/>
				
					<linearGradient id="SVGID_33_" gradientUnits="userSpaceOnUse" x1="-2.33" y1="41.5" x2="438.08" y2="41.5" gradientTransform="matrix(1 0 0 -1 0 142)">
					<stop  offset="0" style="stop-color:#EA4D89"/>
					<stop  offset="1" style="stop-color:#FF1F1F"/>
				</linearGradient>
				<path class="st28" d="M341,100c0-0.3-0.2-0.5-0.5-0.5s-0.5,0.2-0.5,0.5v1c0,0.3,0.2,0.5,0.5,0.5s0.5-0.2,0.5-0.5V100z"/>
				
					<linearGradient id="SVGID_34_" gradientUnits="userSpaceOnUse" x1="-2.33" y1="32.5" x2="438.08" y2="32.5" gradientTransform="matrix(1 0 0 -1 0 142)">
					<stop  offset="0" style="stop-color:#EA4D89"/>
					<stop  offset="1" style="stop-color:#FF1F1F"/>
				</linearGradient>
				<path class="st29" d="M341.5,108.5c-0.3,0-0.5,0.2-0.5,0.5v1c0,0.3,0.2,0.5,0.5,0.5s0.5-0.2,0.5-0.5v-1
					C342,108.7,341.8,108.5,341.5,108.5z"/>
				
					<linearGradient id="SVGID_35_" gradientUnits="userSpaceOnUse" x1="-2.33" y1="45.5" x2="438.08" y2="45.5" gradientTransform="matrix(1 0 0 -1 0 142)">
					<stop  offset="0" style="stop-color:#EA4D89"/>
					<stop  offset="1" style="stop-color:#FF1F1F"/>
				</linearGradient>
				<path class="st30" d="M343.5,95.5c-0.3,0-0.5,0.2-0.5,0.5v1c0,0.3,0.2,0.5,0.5,0.5s0.5-0.2,0.5-0.5v-1
					C344,95.7,343.8,95.5,343.5,95.5z"/>
				
					<linearGradient id="SVGID_36_" gradientUnits="userSpaceOnUse" x1="-2.33" y1="45.5" x2="438.08" y2="45.5" gradientTransform="matrix(1 0 0 -1 0 142)">
					<stop  offset="0" style="stop-color:#EA4D89"/>
					<stop  offset="1" style="stop-color:#FF1F1F"/>
				</linearGradient>
				<path class="st31" d="M381.5,97.5c0.3,0,0.5-0.2,0.5-0.5v-1c0-0.3-0.2-0.5-0.5-0.5S381,95.7,381,96v1
					C381,97.3,381.2,97.5,381.5,97.5z"/>
				
					<linearGradient id="SVGID_37_" gradientUnits="userSpaceOnUse" x1="-2.33" y1="40.5" x2="438.08" y2="40.5" gradientTransform="matrix(1 0 0 -1 0 142)">
					<stop  offset="0" style="stop-color:#EA4D89"/>
					<stop  offset="1" style="stop-color:#FF1F1F"/>
				</linearGradient>
				<path class="st32" d="M381.5,102.5c0.3,0,0.5-0.2,0.5-0.5v-1c0-0.3-0.2-0.5-0.5-0.5s-0.5,0.2-0.5,0.5v1
					C381,102.3,381.2,102.5,381.5,102.5z"/>
				
					<linearGradient id="SVGID_38_" gradientUnits="userSpaceOnUse" x1="-2.33" y1="35" x2="438.08" y2="35" gradientTransform="matrix(1 0 0 -1 0 142)">
					<stop  offset="0" style="stop-color:#EA4D89"/>
					<stop  offset="1" style="stop-color:#FF1F1F"/>
				</linearGradient>
				<path class="st33" d="M388.5,108.5c0.3,0,0.5-0.2,0.5-0.5v-2c0-0.3-0.2-0.5-0.5-0.5s-0.5,0.2-0.5,0.5v2
					C388,108.3,388.2,108.5,388.5,108.5z"/>
				
					<linearGradient id="SVGID_39_" gradientUnits="userSpaceOnUse" x1="-2.33" y1="29" x2="438.08" y2="29" gradientTransform="matrix(1 0 0 -1 0 142)">
					<stop  offset="0" style="stop-color:#EA4D89"/>
					<stop  offset="1" style="stop-color:#FF1F1F"/>
				</linearGradient>
				<path class="st34" d="M388.5,111.5c-0.3,0-0.5,0.2-0.5,0.5v2c0,0.3,0.2,0.5,0.5,0.5s0.5-0.2,0.5-0.5v-2
					C389,111.7,388.8,111.5,388.5,111.5z"/>
				
					<linearGradient id="SVGID_40_" gradientUnits="userSpaceOnUse" x1="-2.33" y1="41.5" x2="438.08" y2="41.5" gradientTransform="matrix(1 0 0 -1 0 142)">
					<stop  offset="0" style="stop-color:#EA4D89"/>
					<stop  offset="1" style="stop-color:#FF1F1F"/>
				</linearGradient>
				<path class="st35" d="M343.5,99.5c-0.3,0-0.5,0.2-0.5,0.5v1c0,0.3,0.2,0.5,0.5,0.5s0.5-0.2,0.5-0.5v-1
					C344,99.7,343.8,99.5,343.5,99.5z"/>
				<path class="st1" d="M391,100h-4v-7c0.3,0,0.5-0.2,0.5-0.5S387.3,92,387,92h-0.1c-0.2-0.9-0.7-1.7-1.3-2.2
					c-0.2-0.2-0.5-0.4-0.7-0.6s-1.2-0.9-1.2-1.2c0-0.4-0.2-0.7-0.6-0.9c0,0,0-0.1,0-0.1v-1c0-0.6-0.4-1-1-1v-3
					c0-0.3-0.2-0.5-0.5-0.5S381,81.7,381,82v5c0,0,0,0.1,0,0.1c-0.4,0.2-0.6,0.5-0.6,0.9c0,0.3-0.9,0.9-1.2,1.2s-0.5,0.4-0.7,0.6
					c-0.6,0.6-1.1,1.4-1.3,2.3H377c-0.3,0-0.5,0.2-0.5,0.5s0.2,0.5,0.5,0.5v7h-30v-7c0.3,0,0.5-0.2,0.5-0.5S347.3,92,347,92h-0.1
					c-0.2-0.9-0.7-1.7-1.3-2.2c-0.2-0.2-0.5-0.4-0.7-0.6s-1.2-0.9-1.2-1.2c0-0.4-0.2-0.7-0.6-0.9c0,0,0-0.1,0-0.1v-5
					c0-0.3-0.2-0.5-0.5-0.5S342,81.7,342,82v3c-0.6,0-1,0.4-1,1v1c0,0,0,0.1,0,0.1c-0.4,0.2-0.6,0.5-0.6,0.9c0,0.3-0.9,0.9-1.2,1.2
					s-0.5,0.4-0.7,0.6c-0.6,0.6-1.1,1.4-1.3,2.3H337c-0.3,0-0.5,0.2-0.5,0.5s0.2,0.5,0.5,0.5v30c0,0.6,0.4,1,1,1h8c0.6,0,1-0.4,1-1
					v-11c0.3,0,0.5-0.2,0.5-0.5c0.3-1.4,1.7-2.3,3.1-1.9c1,0.2,1.7,1,1.9,1.9c0,0.3,0.2,0.5,0.5,0.5v11c0,0.6,0.4,1,1,1s1-0.4,1-1
					v-11c0.3,0,0.5-0.2,0.5-0.5c0.3-1.4,1.7-2.3,3.1-1.9c1,0.2,1.7,1,1.9,1.9c0,0.3,0.2,0.5,0.5,0.5v11c0,0.6,0.4,1,1,1s1-0.4,1-1
					v-11c0.3,0,0.5-0.2,0.5-0.5c0.3-1.4,1.7-2.3,3.1-1.9c1,0.2,1.7,1,1.9,1.9c0,0.3,0.2,0.5,0.5,0.5v11c0,0.6,0.4,1,1,1s1-0.4,1-1
					v-11c0.3,0,0.5-0.2,0.5-0.5c0.3-1.4,1.7-2.3,3.1-1.9c1,0.2,1.7,1,1.9,1.9c0,0.3,0.2,0.5,0.5,0.5v11c0,0.6,0.4,1,1,1s1-0.4,1-1
					v-11c0.3,0,0.5-0.2,0.5-0.5c0.3-1.4,1.7-2.3,3.1-1.9c1,0.2,1.7,1,1.9,1.9c0,0.3,0.2,0.5,0.5,0.5v11c0,0.6,0.4,1,1,1h5
					c0.6,0,1-0.4,1-1v-22C392,100.4,391.6,100,391,100z M388,102v1c0,0.3,0.2,0.5,0.5,0.5s0.5-0.2,0.5-0.5v-1h1v7.9
					c-0.9-0.6-2.1-0.6-3,0V102H388z M380.4,90.8c0.6-0.4,1.1-0.9,1.6-1.5c0.4,0.6,1,1.1,1.6,1.5c0.2,0.2,0.4,0.3,0.6,0.5
					c0.2,0.2,0.4,0.5,0.5,0.8h-5.5c0.1-0.3,0.3-0.5,0.5-0.8C380,91.1,380.2,90.9,380.4,90.8L380.4,90.8z M340.4,90.8
					c0.6-0.4,1.1-0.9,1.6-1.5c0.4,0.6,1,1.1,1.6,1.5c0.2,0.2,0.4,0.3,0.6,0.5c0.2,0.2,0.4,0.5,0.5,0.8h-5.5c0.1-0.3,0.3-0.5,0.5-0.8
					C340,91.1,340.2,90.9,340.4,90.8L340.4,90.8z M345,122h-6v-2c0.3,0,0.5-0.2,0.5-0.5s-0.2-0.5-0.5-0.5v-1c0.3,0,0.5-0.2,0.5-0.5
					s-0.2-0.5-0.5-0.5v-1c0.3,0,0.5-0.2,0.5-0.5s-0.2-0.5-0.5-0.5v-1c0.3,0,0.5-0.2,0.5-0.5s-0.2-0.5-0.5-0.5v-1
					c0.3,0,0.5-0.2,0.5-0.5s-0.2-0.5-0.5-0.5v-1c0.3,0,0.5-0.2,0.5-0.5s-0.2-0.5-0.5-0.5v-1c0.3,0,0.5-0.2,0.5-0.5s-0.2-0.5-0.5-0.5
					v-1c0.3,0,0.5-0.2,0.5-0.5s-0.2-0.5-0.5-0.5v-1c0.3,0,0.5-0.2,0.5-0.5s-0.2-0.5-0.5-0.5v-1c0.3,0,0.5-0.2,0.5-0.5
					s-0.2-0.5-0.5-0.5v-1c0.3,0,0.5-0.2,0.5-0.5S339.3,99,339,99v-1c0.3,0,0.5-0.2,0.5-0.5S339.3,97,339,97v-1
					c0.3,0,0.5-0.2,0.5-0.5S339.3,95,339,95v-1h6v1c-0.3,0-0.5,0.2-0.5,0.5s0.2,0.5,0.5,0.5v1c-0.3,0-0.5,0.2-0.5,0.5
					s0.2,0.5,0.5,0.5v1c-0.3,0-0.5,0.2-0.5,0.5s0.2,0.5,0.5,0.5v1c-0.3,0-0.5,0.2-0.5,0.5s0.2,0.5,0.5,0.5v1c-0.3,0-0.5,0.2-0.5,0.5
					s0.2,0.5,0.5,0.5v1c-0.3,0-0.5,0.2-0.5,0.5s0.2,0.5,0.5,0.5v1c-0.3,0-0.5,0.2-0.5,0.5s0.2,0.5,0.5,0.5v1c-0.3,0-0.5,0.2-0.5,0.5
					s0.2,0.5,0.5,0.5v1c-0.3,0-0.5,0.2-0.5,0.5s0.2,0.5,0.5,0.5v1c-0.3,0-0.5,0.2-0.5,0.5s0.2,0.5,0.5,0.5v1c-0.3,0-0.5,0.2-0.5,0.5
					s0.2,0.5,0.5,0.5v1c-0.3,0-0.5,0.2-0.5,0.5s0.2,0.5,0.5,0.5v1c-0.3,0-0.5,0.2-0.5,0.5s0.2,0.5,0.5,0.5V122z M382,108.5
					c-1.2,0-2.3,0.5-3,1.5v-5c0-0.6-0.4-1-1-1s-1,0.4-1,1v5c-1.3-1.7-3.6-2-5.3-0.7c-0.3,0.2-0.5,0.4-0.7,0.7v-5c0-0.6-0.4-1-1-1
					s-1,0.4-1,1v5c-1.3-1.7-3.6-2-5.3-0.7c-0.3,0.2-0.5,0.4-0.7,0.7v-5c0-0.6-0.4-1-1-1s-1,0.4-1,1v5c-1.3-1.7-3.6-2-5.3-0.7
					c-0.3,0.2-0.5,0.4-0.7,0.7v-5c0-0.6-0.4-1-1-1s-1,0.4-1,1v5c-1.3-1.7-3.6-2-5.3-0.7c-0.3,0.2-0.5,0.4-0.7,0.7v-8h3v1
					c0,0.3,0.2,0.5,0.5,0.5s0.5-0.2,0.5-0.5v-1h3v1c0,0.3,0.2,0.5,0.5,0.5s0.5-0.2,0.5-0.5v-1h3v1c0,0.3,0.2,0.5,0.5,0.5
					s0.5-0.2,0.5-0.5v-1h3v1c0,0.3,0.2,0.5,0.5,0.5s0.5-0.2,0.5-0.5v-1h3v1c0,0.3,0.2,0.5,0.5,0.5s0.5-0.2,0.5-0.5v-1h3v1
					c0,0.3,0.2,0.5,0.5,0.5s0.5-0.2,0.5-0.5v-1h3v1c0,0.3,0.2,0.5,0.5,0.5s0.5-0.2,0.5-0.5v-1h3v1c0,0.3,0.2,0.5,0.5,0.5
					s0.5-0.2,0.5-0.5v-1c0.3,0,0.5-0.2,0.5-0.5s-0.2-0.5-0.5-0.5v-1c0.3,0,0.5-0.2,0.5-0.5S379.3,99,379,99v-1
					c0.3,0,0.5-0.2,0.5-0.5S379.3,97,379,97v-1c0.3,0,0.5-0.2,0.5-0.5S379.3,95,379,95v-1h6v1c-0.3,0-0.5,0.2-0.5,0.5
					s0.2,0.5,0.5,0.5v1c-0.3,0-0.5,0.2-0.5,0.5s0.2,0.5,0.5,0.5v1c-0.3,0-0.5,0.2-0.5,0.5s0.2,0.5,0.5,0.5v1c-0.3,0-0.5,0.2-0.5,0.5
					s0.2,0.5,0.5,0.5v8C384.3,109,383.2,108.5,382,108.5z M387,122v-10.8c0.7-0.8,2-0.9,2.8-0.2c0.1,0.1,0.1,0.1,0.2,0.2V122H387z"
					/>
			</g>
		</g>
	</g>
</g>
</svg>
